<svg width="1264" height="791" viewBox="0 0 1264 791" fill="none" xmlns="http://www.w3.org/2000/svg">
<mask id="mask0_1275_597" style="mask-type:alpha" maskUnits="userSpaceOnUse" x="0" y="0" width="1264" height="791">
<rect width="1264" height="790.187" fill="url(#paint0_linear_1275_597)"/>
</mask>
<g mask="url(#mask0_1275_597)">
<circle cx="117.704" cy="444.574" r="7.49703" stroke="#00CDC2" stroke-width="1.49941"/>
<circle opacity="0.2" cx="117.703" cy="444.574" r="4.49822" stroke="#00CDC2" stroke-width="1.49941"/>
<path opacity="0.1" d="M207.668 140.944H574.273" stroke="white" stroke-width="1.49941"/>
<circle cx="582.52" cy="141.694" r="7.49703" stroke="#00CDC2" stroke-width="1.49941"/>
<circle cx="200.171" cy="140.194" r="7.49703" stroke="#00CDC2" stroke-width="1.49941"/>
<circle opacity="0.2" cx="200.17" cy="140.195" r="4.49822" stroke="#00CDC2" stroke-width="1.49941"/>
<path opacity="0.1" d="M173.183 215.914H303.631L326.872 192.673H736.21L780.442 236.906H853.164L913.14 176.93" stroke="white" stroke-width="1.49941"/>
<circle cx="165.685" cy="216.664" r="7.49703" stroke="#00CDC2" stroke-width="1.49941"/>
<circle cx="919.887" cy="173.181" r="7.49703" stroke="#D9D9D9" stroke-width="1.49941"/>
<circle opacity="0.2" cx="165.684" cy="216.664" r="4.49822" stroke="#00CDC2" stroke-width="1.49941"/>
<path opacity="0.1" d="M462.566 250.402H696.474L738.457 292.385H885.399L934.13 243.654" stroke="white" stroke-width="1.49941"/>
<circle cx="939.377" cy="239.156" r="7.49703" stroke="#D9D9D9" stroke-width="1.49941"/>
<circle cx="455.069" cy="249.652" r="7.49703" stroke="#00CDC2" stroke-width="1.49941"/>
<circle opacity="0.2" cx="455.068" cy="249.651" r="4.49822" stroke="#00CDC2" stroke-width="1.49941"/>
<path opacity="0.2" d="M57.7275 363.606H165.685L225.661 303.63H405.59" stroke="white" stroke-width="1.49941"/>
<path d="M102.709 363.606H125.2" stroke="#00CDC2" stroke-width="1.49941"/>
<circle opacity="0.2" cx="413.087" cy="303.63" r="7.49703" stroke="#D9D9D9" stroke-width="1.49941"/>
<circle cx="50.2301" cy="363.606" r="7.49703" stroke="#00CDC2" stroke-width="1.49941"/>
<circle opacity="0.2" cx="50.2294" cy="363.606" r="4.49822" stroke="#00CDC2" stroke-width="1.49941"/>
<path opacity="0.2" d="M124.45 445.324H309.627L397.342 357.609H672.483L786.438 471.564H860.659L899.644 432.579H928.132" stroke="white" stroke-width="1.49941"/>
<circle cx="934.88" cy="432.579" r="7.49703" stroke="#D9D9D9" stroke-width="1.49941"/>
<path d="M413.086 357.609H435.577" stroke="#00CDC2" stroke-width="1.49941"/>
<path opacity="0.1" d="M324.622 569.025H425.082L491.806 502.301H560.779" stroke="white" stroke-width="1.49941"/>
<circle cx="567.526" cy="503.051" r="7.49703" stroke="#00CDC2" stroke-width="1.49941"/>
<circle cx="317.125" cy="569.025" r="7.49703" stroke="#00CDC2" stroke-width="1.49941"/>
<path d="M401.092 569.025H423.583" stroke="#00CDC2" stroke-width="1.49941"/>
<g opacity="0.2">
<path d="M167.934 501.552H370.354L443.824 428.081H650.743" stroke="white" stroke-width="1.49941"/>
<circle cx="658.988" cy="428.081" r="7.49703" stroke="#D9D9D9" stroke-width="1.49941"/>
<circle cx="161.185" cy="501.552" r="7.49703" stroke="#D9D9D9" stroke-width="1.49941"/>
</g>
<g opacity="0.3">
<path d="M104.209 540.536H224.911L336.617 652.242H475.312L540.536 587.018H670.235L758.7 675.483H927.383" stroke="white" stroke-width="1.49941"/>
<circle cx="934.881" cy="673.984" r="7.49703" stroke="#D9D9D9" stroke-width="1.49941"/>
<circle cx="96.7116" cy="540.536" r="7.49703" stroke="#D9D9D9" stroke-width="1.49941"/>
</g>
<g opacity="0.3">
<path d="M133.447 626.002H208.418L307.378 724.963" stroke="white" stroke-width="1.49941"/>
<circle cx="125.201" cy="626.003" r="7.49703" stroke="#D9D9D9" stroke-width="1.49941"/>
<circle cx="312.627" cy="729.462" r="7.49703" stroke="#D9D9D9" stroke-width="1.49941"/>
</g>
<path opacity="0.2" d="M359.857 712.968H536.038L596.764 652.242" stroke="white" stroke-width="1.49941"/>
<path d="M437.078 712.968H459.569" stroke="#00CDC2" stroke-width="1.49941"/>
<circle opacity="0.2" cx="353.111" cy="711.468" r="7.49703" stroke="#D9D9D9" stroke-width="1.49941"/>
<circle opacity="0.1" cx="600.512" cy="646.994" r="7.49703" stroke="#D9D9D9" stroke-width="1.49941"/>
<path opacity="0.3" d="M155.938 433.329H176.93L173.931 437.827H152.939L155.938 433.329Z" fill="#00CDC2"/>
<path d="M179.929 433.329H200.92L197.921 437.827H176.93L179.929 433.329Z" fill="#00CDC2"/>
<path opacity="0.1" d="M203.919 433.329H224.91L221.912 437.827H200.92L203.919 433.329Z" fill="#00CDC2"/>
<path opacity="0.2" d="M227.91 433.329H248.902L245.903 437.827H224.911L227.91 433.329Z" fill="#00CDC2"/>
<g opacity="0.3">
<path d="M673.172 712.124H894.132" stroke="white" stroke-width="1.37242"/>
<circle cx="666.31" cy="710.751" r="6.86211" stroke="#D9D9D9" stroke-width="1.37242"/>
</g>
<circle cx="898.25" cy="710.75" r="6.86211" stroke="#D9D9D9" stroke-width="1.37242"/>
<g opacity="0.3">
<path d="M614.846 497.339H700.622L763.067 559.785H867.371" stroke="white" stroke-width="1.37242"/>
<circle cx="608.669" cy="498.025" r="6.86211" stroke="#D9D9D9" stroke-width="1.37242"/>
<circle cx="873.546" cy="558.412" r="6.86211" stroke="#D9D9D9" stroke-width="1.37242"/>
</g>
</g>
<defs>
<linearGradient id="paint0_linear_1275_597" x1="97.4615" y1="338.866" x2="1243.01" y2="332.868" gradientUnits="userSpaceOnUse">
<stop stop-color="#121212"/>
<stop offset="0.635417" stop-color="#121212" stop-opacity="0"/>
</linearGradient>
</defs>
</svg>
