<svg width="1201" height="751" viewBox="0 0 1201 751" fill="none" xmlns="http://www.w3.org/2000/svg">
<mask id="mask0_1275_634" style="mask-type:alpha" maskUnits="userSpaceOnUse" x="0" y="0" width="1201" height="751">
<rect width="1201" height="750.803" fill="url(#paint0_linear_1275_634)"/>
</mask>
<g mask="url(#mask0_1275_634)">
<circle cx="111.838" cy="422.416" r="7.12337" stroke="#00CDC2" stroke-width="1.42467"/>
<circle opacity="0.2" cx="111.837" cy="422.416" r="4.27402" stroke="#00CDC2" stroke-width="1.42467"/>
<path opacity="0.1" d="M197.316 133.919H545.649" stroke="white" stroke-width="1.42467"/>
<circle cx="553.485" cy="134.631" r="7.12337" stroke="#00CDC2" stroke-width="1.42467"/>
<circle cx="190.193" cy="133.207" r="7.12337" stroke="#00CDC2" stroke-width="1.42467"/>
<circle opacity="0.2" cx="190.192" cy="133.207" r="4.27402" stroke="#00CDC2" stroke-width="1.42467"/>
<path opacity="0.1" d="M164.55 205.153H288.496L310.579 183.07H699.515L741.543 225.098H810.639L867.626 168.111" stroke="white" stroke-width="1.42467"/>
<circle cx="157.427" cy="205.865" r="7.12337" stroke="#00CDC2" stroke-width="1.42467"/>
<circle cx="874.037" cy="164.55" r="7.12337" stroke="#D9D9D9" stroke-width="1.42467"/>
<circle opacity="0.2" cx="157.426" cy="205.865" r="4.27402" stroke="#00CDC2" stroke-width="1.42467"/>
<path opacity="0.1" d="M439.511 237.921H661.76L701.651 277.812H841.269L887.571 231.51" stroke="white" stroke-width="1.42467"/>
<circle cx="892.557" cy="227.236" r="7.12337" stroke="#D9D9D9" stroke-width="1.42467"/>
<circle cx="432.387" cy="237.209" r="7.12337" stroke="#00CDC2" stroke-width="1.42467"/>
<circle opacity="0.2" cx="432.387" cy="237.209" r="4.27402" stroke="#00CDC2" stroke-width="1.42467"/>
<path opacity="0.2" d="M54.8496 345.484H157.426L214.413 288.497H385.374" stroke="white" stroke-width="1.42467"/>
<path d="M97.5898 345.484H118.96" stroke="#00CDC2" stroke-width="1.42467"/>
<circle opacity="0.2" cx="392.498" cy="288.497" r="7.12337" stroke="#D9D9D9" stroke-width="1.42467"/>
<circle cx="47.7263" cy="345.484" r="7.12337" stroke="#00CDC2" stroke-width="1.42467"/>
<circle opacity="0.2" cx="47.7256" cy="345.483" r="4.27402" stroke="#00CDC2" stroke-width="1.42467"/>
<path opacity="0.2" d="M118.248 423.129H294.195L377.539 339.785H638.966L747.241 448.06H817.763L854.804 411.019H881.873" stroke="white" stroke-width="1.42467"/>
<circle cx="888.284" cy="411.019" r="7.12337" stroke="#D9D9D9" stroke-width="1.42467"/>
<path d="M392.498 339.785H413.868" stroke="#00CDC2" stroke-width="1.42467"/>
<path opacity="0.1" d="M308.442 540.664H403.896L467.294 477.266H532.829" stroke="white" stroke-width="1.42467"/>
<circle cx="539.24" cy="477.978" r="7.12337" stroke="#00CDC2" stroke-width="1.42467"/>
<circle cx="301.319" cy="540.664" r="7.12337" stroke="#00CDC2" stroke-width="1.42467"/>
<path d="M381.101 540.664H402.471" stroke="#00CDC2" stroke-width="1.42467"/>
<g opacity="0.2">
<path d="M159.563 476.554H351.894L421.703 406.745H618.308" stroke="white" stroke-width="1.42467"/>
<circle cx="626.143" cy="406.745" r="7.12337" stroke="#D9D9D9" stroke-width="1.42467"/>
<circle cx="153.152" cy="476.554" r="7.12337" stroke="#D9D9D9" stroke-width="1.42467"/>
</g>
<g opacity="0.3">
<path d="M99.0146 513.595H213.701L319.839 619.733H451.621L513.595 557.76H636.829L720.885 641.815H881.161" stroke="white" stroke-width="1.42467"/>
<circle cx="888.284" cy="640.391" r="7.12337" stroke="#D9D9D9" stroke-width="1.42467"/>
<circle cx="91.8914" cy="513.595" r="7.12337" stroke="#D9D9D9" stroke-width="1.42467"/>
</g>
<g opacity="0.3">
<path d="M126.796 594.802H198.03L292.058 688.83" stroke="white" stroke-width="1.42467"/>
<circle cx="118.961" cy="594.802" r="7.12337" stroke="#D9D9D9" stroke-width="1.42467"/>
<circle cx="297.045" cy="693.104" r="7.12337" stroke="#D9D9D9" stroke-width="1.42467"/>
</g>
<path opacity="0.2" d="M341.922 677.432H509.321L567.02 619.733" stroke="white" stroke-width="1.42467"/>
<path d="M415.293 677.433H436.663" stroke="#00CDC2" stroke-width="1.42467"/>
<circle opacity="0.2" cx="335.511" cy="676.008" r="7.12337" stroke="#D9D9D9" stroke-width="1.42467"/>
<circle opacity="0.1" cx="570.582" cy="614.747" r="7.12337" stroke="#D9D9D9" stroke-width="1.42467"/>
<path d="M148.166 411.731H168.111L165.262 416.005H145.316L148.166 411.731Z" fill="#00CDC2"/>
<path opacity="0.3" d="M170.961 411.731H190.906L188.057 416.005H168.111L170.961 411.731Z" fill="#00CDC2"/>
<path opacity="0.67" d="M193.756 411.731H213.701L210.852 416.005H190.906L193.756 411.731Z" fill="#00CDC2"/>
<path opacity="0.2" d="M216.551 411.731H236.496L233.647 416.005H213.701L216.551 411.731Z" fill="#00CDC2"/>
<g opacity="0.3">
<path d="M639.62 676.629H849.567" stroke="white" stroke-width="1.30402"/>
<circle cx="633.1" cy="675.325" r="6.52009" stroke="#D9D9D9" stroke-width="1.30402"/>
</g>
<circle cx="853.479" cy="675.325" r="6.52009" stroke="#D9D9D9" stroke-width="1.30402"/>
<g opacity="0.3">
<path d="M584.2 472.551H665.701L725.034 531.884H824.139" stroke="white" stroke-width="1.30402"/>
<circle cx="578.332" cy="473.203" r="6.52009" stroke="#D9D9D9" stroke-width="1.30402"/>
<circle cx="830.008" cy="530.58" r="6.52009" stroke="#D9D9D9" stroke-width="1.30402"/>
</g>
</g>
<defs>
<linearGradient id="paint0_linear_1275_634" x1="92.6038" y1="321.976" x2="1181.05" y2="316.278" gradientUnits="userSpaceOnUse">
<stop stop-color="#121212" stop-opacity="0"/>
<stop offset="0.416337" stop-color="#121212"/>
<stop offset="0.711458" stop-color="#121212" stop-opacity="0"/>
</linearGradient>
</defs>
</svg>
