<svg width="40" height="40" viewBox="0 0 40 40" fill="none" xmlns="http://www.w3.org/2000/svg">
<circle cx="20" cy="20" r="20" fill="#F1F1F1"/>
<path fill-rule="evenodd" clip-rule="evenodd" d="M22.6666 16.6667C22.6666 18.1394 21.4727 19.3333 20 19.3333C18.5272 19.3333 17.3333 18.1394 17.3333 16.6667C17.3333 15.1939 18.5272 14 20 14C21.4727 14 22.6666 15.1939 22.6666 16.6667ZM21.3333 16.6667C21.3333 17.403 20.7364 18 20 18C19.2636 18 18.6666 17.403 18.6666 16.6667C18.6666 15.9303 19.2636 15.3333 20 15.3333C20.7364 15.3333 21.3333 15.9303 21.3333 16.6667Z" fill="#051313"/>
<path d="M23.3333 22C23.3333 21.6318 23.0348 21.3333 22.6666 21.3333H17.3333C16.9651 21.3333 16.6666 21.6318 16.6666 22V26H15.3333V22C15.3333 20.8954 16.2287 20 17.3333 20H22.6666C23.7712 20 24.6666 20.8954 24.6666 22V26H23.3333V22Z" fill="#051313"/>
</svg>
