<svg width="228" height="259" viewBox="0 0 228 259" fill="none" xmlns="http://www.w3.org/2000/svg">
<path d="M106.872 2.62423L102.538 5.13436V259H111.662V129.5C111.662 58.3035 111.548 0 111.434 0C111.206 0.114097 109.153 1.25507 106.872 2.62423Z" fill="url(#paint0_linear_494_1758)"/>
<path d="M119.647 23.3899L128.543 25.4436C147.59 30.0075 171.314 41.3031 175.306 47.8066C176.333 49.5181 175.306 49.1758 171.656 46.4374C168.919 44.2696 163.444 41.3031 159.452 39.7057C151.696 36.6251 127.745 30.8062 122.612 30.8062C119.647 30.8062 119.532 31.0344 119.875 36.0546L120.217 41.3031L131.052 44.0414C154.548 49.9745 176.675 60.6996 176.675 66.1762C176.675 66.8608 175.534 66.2903 174.166 65.0352C170.402 61.4982 164.927 58.874 154.32 55.5652C147.134 53.2833 123.068 47.9207 120.103 47.9207C119.875 47.9207 119.647 50.4308 119.647 53.3974V58.874L134.246 62.5251C152.267 66.9749 168.691 73.3643 173.253 77.5859C177.93 81.9216 177.587 84.0894 172.797 80.4383C166.296 75.5322 145.766 69.5991 125.121 66.7467L119.647 66.0621V77.1295L130.14 79.1833C150.214 83.0626 173.253 91.5057 175.648 96.0696C177.473 99.3784 176.105 99.8348 172.569 97.0965C167.094 92.7608 144.169 86.5996 127.288 84.8881L119.532 84.0894L119.875 89.6802L120.217 95.1568L131.622 97.2106C145.766 99.7207 169.261 106.681 173.367 109.647C175.078 110.788 176.675 112.842 177.017 114.097C177.587 116.493 176.219 117.292 174.964 115.238C172.455 111.244 137.097 102.687 122.954 102.687C119.761 102.687 119.647 102.915 119.647 107.822C119.647 110.674 119.989 112.956 120.559 112.956C124.209 112.956 148.731 117.976 158.654 120.715C172.227 124.366 176.675 126.762 176.675 130.07C176.675 132.352 176.675 132.352 172.113 130.07C166.182 126.99 150.556 123.453 134.474 121.399C127.288 120.486 121.015 119.802 120.559 119.802C120.103 119.802 119.647 122.312 119.647 125.393V130.983L129.684 132.352C144.283 134.292 171.2 140.225 174.166 142.165C175.534 143.078 176.675 144.789 176.675 146.044C176.675 148.782 176.903 148.782 171.656 146.615C166.068 144.219 147.704 140.682 134.36 139.198C118.506 137.601 119.647 137.259 119.647 143.648V149.125L129.113 149.923C142.344 151.064 171.086 156.313 174.166 158.138C175.534 159.051 176.675 160.763 176.675 162.018C176.675 164.642 176.675 164.642 172.455 163.045C167.55 161.105 144.511 157.568 131.394 156.769L119.647 155.97V161.333C119.647 164.185 119.875 166.581 120.217 166.581C126.376 166.581 164.927 171.83 171.885 173.656C176.105 174.682 176.675 175.253 176.675 178.105V181.3L172.341 179.817C168.007 178.219 145.423 175.253 128.543 173.998L119.647 173.313V179.132C119.647 183.81 119.989 184.837 121.7 184.837C125.121 184.951 149.529 187.005 160.479 188.26C175.991 189.971 176.675 190.2 176.675 194.193C176.675 196.817 176.219 197.388 174.736 196.931C170.288 195.676 158.426 194.079 148.161 193.394C142.23 193.052 133.333 192.482 128.429 192.139L119.532 191.455L119.875 196.931L120.217 202.522L127.63 202.75C137.439 203.093 168.235 205.26 173.025 206.059C176.219 206.515 176.675 207.086 176.675 210.052C176.675 212.791 176.333 213.361 174.736 212.905C171.656 211.878 142.002 209.938 130.254 209.938H119.647V214.959C119.647 218.496 120.217 220.207 121.471 220.663C122.498 221.006 130.596 221.348 139.492 221.348C148.503 221.348 160.479 221.69 166.182 222.033C176.561 222.831 176.675 222.831 176.675 225.798V228.878L119.647 227.966V238.463H176.675V245.308H119.647V257.859H191.274L192.073 193.052C193.213 107.251 192.301 49.5181 189.677 41.6454C186.598 32.7458 175.534 22.4771 161.163 15.0608C149.986 9.35595 134.474 3.537 124.551 1.36916L119.647 0.228194V23.3899Z" fill="url(#paint1_linear_494_1758)"/>
<path d="M90.9037 10.3828L86.5696 12.5507V259H96.8347V133.493C96.8347 64.4648 96.4925 7.98678 96.0363 7.98678C95.466 8.10088 93.1849 9.12775 90.9037 10.3828Z" fill="url(#paint2_linear_494_1758)"/>
<path d="M76.0764 16.8863L71.7422 18.826V259H80.8667V136.916C80.8667 69.7132 80.7527 14.8326 80.6386 14.9467C80.4105 14.9467 78.3575 15.8595 76.0764 16.8863Z" fill="url(#paint3_linear_494_1758)"/>
<path d="M36.3841 87.3982C19.5037 93.1031 7.52775 101.204 3.07953 109.989C0.798398 114.439 0.570284 116.607 0.114057 153.574C-0.114057 175.025 0 207.2 0.456227 225.227L1.25463 257.859H48.9304V249.872L29.8829 249.644C11.6338 249.302 10.7213 249.188 10.7213 247.02C10.7213 244.852 11.6338 244.738 29.8829 244.396L48.9304 244.167V236.979L29.5407 237.892C10.8354 238.691 10.1511 238.577 10.1511 236.409C10.1511 234.583 11.1776 234.127 17.9069 233.556C22.127 233.1 30.7953 232.758 37.2966 232.758H49.0444L48.7023 229.107L48.3601 225.57L38.6653 225.798C33.3046 225.912 24.9784 226.482 19.9599 226.939C13.2306 227.509 10.9495 227.395 10.4932 226.368C9.35266 223.402 11.5197 222.717 24.6363 222.033C32.05 221.576 40.4902 221.006 43.5697 220.663C48.5882 219.979 48.9304 219.751 48.9304 216.67V213.361H41.2886C33.8749 213.475 19.8459 214.844 13.3446 216.328C10.9495 216.784 10.1511 216.556 10.1511 215.187C10.1511 214.274 11.0635 213.019 12.2041 212.448C13.9149 211.536 32.8484 209.254 44.3681 208.455C48.0179 208.227 48.3601 207.885 48.7023 204.462L49.0444 200.696L41.2886 201.381C31.4797 202.294 18.7053 203.891 13.9149 204.918C10.1511 205.717 9.35266 204.918 11.1776 202.18C11.976 200.696 24.9784 198.415 41.2886 196.817C48.8163 196.018 48.9304 195.904 48.9304 192.481V189.059L39.6918 189.857C30.4532 190.656 15.8539 193.166 12.2041 194.535C9.69483 195.562 9.46672 193.622 11.7479 191.341C13.4587 189.629 28.5142 186.434 40.9464 185.065C48.3601 184.267 48.3601 184.267 48.7023 180.387L49.0444 176.622L41.2886 177.307C31.4797 178.333 18.021 180.958 14.143 182.783C10.6073 184.381 9.01049 183.126 11.5197 180.615C13.4587 178.79 31.9359 174.112 42.9994 172.743C48.9304 172.058 49.0444 171.944 48.7023 168.407C48.3601 164.984 48.132 164.87 43.7978 165.212C35.2436 165.783 19.8459 168.978 15.0555 171.145C10.037 173.313 8.78238 172.743 11.8619 169.548C14.143 167.38 26.119 163.729 39.1215 161.333C48.8163 159.507 48.9304 159.507 48.9304 156.085V152.662L41.8589 153.46C32.3921 154.487 17.1085 158.367 13.8009 160.42C10.3792 162.702 9.58077 161.904 12.09 158.823C14.4852 155.97 28.5142 151.293 40.3761 149.353L48.9304 147.87V140.339L43.5697 141.138C33.6468 142.393 16.4242 147.185 13.3446 149.467C9.58077 152.319 9.12455 150.494 12.6603 147.185C15.2836 144.675 31.2516 139.198 42.4291 136.916C48.5882 135.661 48.9304 135.433 48.9304 132.124V128.587L41.5167 129.386C32.164 130.299 19.9599 134.064 14.4852 137.601C11.6338 139.426 10.4932 139.769 10.8354 138.628C12.3181 134.977 25.6628 128.93 40.3761 125.507C48.0179 123.681 48.3601 123.453 48.7023 120.03C49.1585 115.808 49.6147 115.808 37.5247 118.204C26.6893 120.258 16.6523 123.681 14.7133 126.077C13.9149 126.99 12.7744 127.789 12.09 127.789C11.4057 127.789 12.09 126.533 13.5728 124.936C16.7664 121.513 29.8829 115.922 40.8323 113.298C48.4742 111.473 48.9304 111.244 48.9304 108.164C48.9304 105.426 48.4742 104.969 45.7368 104.969C40.148 104.969 24.7503 109.305 17.5648 112.956C11.0635 116.151 10.8354 116.265 14.143 113.526C18.8194 109.533 27.0315 105.768 39.0074 102.117L48.9304 99.0361V91.7339C48.9304 83.0626 49.0444 83.0626 36.3841 87.3982Z" fill="url(#paint4_linear_494_1758)"/>
<path d="M53.4931 257.859H66.0394V92.989L53.4931 84.3176V257.859Z" fill="url(#paint5_linear_494_1758)"/>
<path d="M199.486 115.352C195.608 118.775 195.608 118.775 199.144 116.493C201.083 115.124 203.022 114.097 203.364 114.097C203.706 114.097 204.048 146.501 204.048 185.978V257.973L227.43 257.289L227.772 196.817L228 136.346L215.682 124.023L203.364 111.815L199.486 115.352Z" fill="url(#paint6_linear_494_1758)"/>
<defs>
<linearGradient id="paint0_linear_494_1758" x1="114.057" y1="-10.2687" x2="109.491" y2="255.577" gradientUnits="userSpaceOnUse">
<stop stop-color="#00CDC2"/>
<stop offset="1" stop-color="#00CDC2" stop-opacity="0"/>
</linearGradient>
<linearGradient id="paint1_linear_494_1758" x1="114.057" y1="-10.2687" x2="109.491" y2="255.577" gradientUnits="userSpaceOnUse">
<stop stop-color="#00CDC2"/>
<stop offset="1" stop-color="#00CDC2" stop-opacity="0"/>
</linearGradient>
<linearGradient id="paint2_linear_494_1758" x1="114.057" y1="-10.2687" x2="109.491" y2="255.577" gradientUnits="userSpaceOnUse">
<stop stop-color="#00CDC2"/>
<stop offset="1" stop-color="#00CDC2" stop-opacity="0"/>
</linearGradient>
<linearGradient id="paint3_linear_494_1758" x1="114.057" y1="-10.2687" x2="109.491" y2="255.577" gradientUnits="userSpaceOnUse">
<stop stop-color="#00CDC2"/>
<stop offset="1" stop-color="#00CDC2" stop-opacity="0"/>
</linearGradient>
<linearGradient id="paint4_linear_494_1758" x1="114.057" y1="-10.2687" x2="109.491" y2="255.577" gradientUnits="userSpaceOnUse">
<stop stop-color="#00CDC2"/>
<stop offset="1" stop-color="#00CDC2" stop-opacity="0"/>
</linearGradient>
<linearGradient id="paint5_linear_494_1758" x1="114.057" y1="-10.2687" x2="109.491" y2="255.577" gradientUnits="userSpaceOnUse">
<stop stop-color="#00CDC2"/>
<stop offset="1" stop-color="#00CDC2" stop-opacity="0"/>
</linearGradient>
<linearGradient id="paint6_linear_494_1758" x1="114.057" y1="-10.2687" x2="109.491" y2="255.577" gradientUnits="userSpaceOnUse">
<stop stop-color="#00CDC2"/>
<stop offset="1" stop-color="#00CDC2" stop-opacity="0"/>
</linearGradient>
</defs>
</svg>
