<svg width="266" height="211" viewBox="0 0 266 211" fill="none" xmlns="http://www.w3.org/2000/svg">
<path d="M124.272 0.404536C109.413 3.05713 96.373 13.3555 90.5543 27.1386C87.6969 33.8481 87.0215 37.2808 87.0734 45.6027C87.1254 52.2602 87.2812 53.7165 88.4762 57.7214C93.9832 75.8215 108.322 87.9923 126.973 90.3328C154.613 93.8176 179.082 70.9324 177.472 43.0021C176.381 23.0296 163.445 6.85399 144.274 1.34075C139.962 0.0924653 128.792 -0.427652 124.272 0.404536Z" fill="url(#paint0_linear_494_1765)"/>
<path d="M86.9695 96.0021C83.5926 96.5742 79.4363 98.9147 76.527 101.879C75.0723 103.388 60.941 119.719 45.1992 138.184C26.2883 160.393 16.1055 172.719 15.1703 174.592C13.1961 178.545 12.9363 184.994 14.4949 189.207C15.7937 192.64 19.0148 196.541 22.2879 198.621L24.6258 200.078H0V211H266V200.078H241.374L243.712 198.621C246.985 196.541 250.206 192.64 251.505 189.207C253.064 184.994 252.804 178.545 250.83 174.592C249.323 171.575 195.136 107.549 188.954 101.463C185.577 98.1346 182.252 96.4702 177.836 95.898L175.602 95.638V121.54H180.433C187.291 121.592 190.096 122.996 191.967 127.417C192.642 129.03 192.746 132.566 192.746 149.938V170.535L195.292 172.823C196.798 174.176 198.513 176.412 199.344 178.129C200.591 180.677 200.799 181.717 200.799 185.514C200.799 189.311 200.591 190.351 199.292 192.952C198.513 194.616 196.85 196.905 195.707 198.049C193.629 200.025 193.525 200.078 189.733 200.078H185.888L187.499 198.257L189.109 196.385V163.357C189.109 126.793 189.265 128.509 185.784 126.429C184.226 125.493 182.2 125.441 133 125.441C83.8004 125.441 81.7742 125.493 80.2156 126.429C76.7348 128.509 76.8906 126.793 76.8906 163.357V196.385L78.5012 198.257L80.1117 200.078H76.2672C72.4746 200.078 72.3707 200.025 70.2926 198.049C69.1496 196.905 67.4871 194.616 66.7078 192.952C65.409 190.351 65.2012 189.311 65.2012 185.514C65.2012 181.717 65.409 180.677 66.6559 178.129C67.4871 176.412 69.2016 174.176 70.7082 172.823L73.2539 170.535V149.782C73.2539 130.798 73.3578 128.925 74.241 127.001C76.1113 122.892 78.9688 121.54 85.7227 121.54H90.3984V108.537C90.3984 98.4466 90.2426 95.534 89.775 95.586C89.4113 95.638 88.1645 95.846 86.9695 96.0021Z" fill="url(#paint1_linear_494_1765)"/>
<path d="M127.649 103.752L122.609 108.849L124.168 110.357C125.675 111.814 125.727 111.97 125.727 116.963V122.06H140.273V116.963C140.273 111.97 140.325 111.814 141.832 110.357L143.391 108.849L138.351 103.752C135.546 100.943 133.156 98.6547 133 98.6547C132.844 98.6547 130.454 100.943 127.649 103.752Z" fill="url(#paint2_linear_494_1765)"/>
<defs>
<linearGradient id="paint0_linear_494_1765" x1="133" y1="-2.80967e-07" x2="132.991" y2="204" gradientUnits="userSpaceOnUse">
<stop stop-color="#00CDC2"/>
<stop offset="1" stop-color="#00CDC2" stop-opacity="0"/>
</linearGradient>
<linearGradient id="paint1_linear_494_1765" x1="133" y1="-2.80967e-07" x2="132.991" y2="204" gradientUnits="userSpaceOnUse">
<stop stop-color="#00CDC2"/>
<stop offset="1" stop-color="#00CDC2" stop-opacity="0"/>
</linearGradient>
<linearGradient id="paint2_linear_494_1765" x1="133" y1="-2.80967e-07" x2="132.991" y2="204" gradientUnits="userSpaceOnUse">
<stop stop-color="#00CDC2"/>
<stop offset="1" stop-color="#00CDC2" stop-opacity="0"/>
</linearGradient>
</defs>
</svg>
