<svg width="719" height="723" viewBox="0 0 719 723" fill="none" xmlns="http://www.w3.org/2000/svg">
<rect x="588" y="320" width="1" height="191" fill="url(#paint0_linear_845_842)"/>
<rect x="718" y="100" width="1" height="191" fill="url(#paint1_linear_845_842)"/>
<rect x="238" y="250" width="1" height="191" fill="url(#paint2_linear_845_842)"/>
<rect x="178" y="310" width="1" height="191" fill="url(#paint3_linear_845_842)"/>
<path d="M343 747.096V219.246L509.909 275.35V747.096H343Z" fill="url(#paint4_linear_845_842)"/>
<path d="M667 747.097V216.441L509.909 275.351V747.097H667Z" fill="url(#paint5_linear_845_842)"/>
<path d="M501.42 164.354L666.24 217.191L509.85 275.399L343.642 219.616L501.42 164.354Z" fill="url(#paint6_linear_845_842)"/>
<path d="M480 390.041L494.985 372L511.5 406.5L480 390.041Z" stroke="url(#paint7_linear_845_842)" stroke-linecap="round"/>
<path d="M590 170.041L604.985 152L621.5 186.5L590 170.041Z" stroke="url(#paint8_linear_845_842)" stroke-linecap="round"/>
<path d="M390 560.041L404.985 542L421.5 576.5L390 560.041Z" stroke="url(#paint9_linear_845_842)" stroke-linecap="round"/>
<path d="M244 757.682V399.266L357.333 437.361V757.682H244Z" fill="url(#paint10_linear_845_842)"/>
<path d="M464 757.682V397.361L357.333 437.361V757.682H464Z" fill="url(#paint11_linear_845_842)"/>
<path d="M351.568 361.994L463.483 397.87L357.293 437.394L244.436 399.517L351.568 361.994Z" fill="url(#paint12_linear_845_842)"/>
<path d="M99 808.401V502.118L195.848 534.672V808.401H99Z" fill="url(#paint13_linear_845_842)"/>
<path d="M287 808.401V500.491L195.848 534.673V808.401H287Z" fill="url(#paint14_linear_845_842)"/>
<path d="M190.923 470.267L286.559 500.926L195.814 534.701L99.3727 502.333L190.923 470.267Z" fill="url(#paint15_linear_845_842)"/>
<g opacity="0.67" filter="url(#filter0_f_845_842)">
<path d="M377.11 404.176H318.497L417.994 187.224H406.708L465.193 141L485.993 187.224H475.401L377.11 404.176Z" fill="black"/>
<path d="M377.11 404.176H318.497L417.994 187.224H406.708L465.193 141L485.993 187.224H475.401L377.11 404.176Z" fill="url(#paint16_linear_845_842)"/>
<path d="M318.497 404.176L259.883 289.712H320.114L377.11 404.176H318.497Z" fill="black"/>
<path d="M318.497 404.176L259.883 289.712H320.114L377.11 404.176H318.497Z" fill="url(#paint17_linear_845_842)"/>
<path d="M223.966 455.5H162.5L259.883 289.712H320.114L223.966 455.5Z" fill="black"/>
<path d="M223.966 455.5H162.5L259.883 289.712H320.114L223.966 455.5Z" fill="url(#paint18_linear_845_842)"/>
</g>
<path d="M377.11 404.176H318.497L417.994 187.224H406.708L465.193 141L485.993 187.224H475.401L377.11 404.176Z" fill="black"/>
<path d="M377.11 404.176H318.497L417.994 187.224H406.708L465.193 141L485.993 187.224H475.401L377.11 404.176Z" fill="url(#paint19_linear_845_842)"/>
<path d="M318.497 404.176L259.883 289.712H320.114L377.11 404.176H318.497Z" fill="black"/>
<path d="M318.497 404.176L259.883 289.712H320.114L377.11 404.176H318.497Z" fill="url(#paint20_linear_845_842)"/>
<path d="M223.966 455.5H162.5L259.883 289.712H320.114L223.966 455.5Z" fill="black"/>
<path d="M223.966 455.5H162.5L259.883 289.712H320.114L223.966 455.5Z" fill="url(#paint21_linear_845_842)"/>
<rect x="588" width="1" height="191" fill="url(#paint22_linear_845_842)"/>
<rect x="358" y="20" width="1" height="191" fill="url(#paint23_linear_845_842)"/>
<rect x="138" y="150" width="1" height="191" fill="url(#paint24_linear_845_842)"/>
<rect x="718" y="400" width="1" height="191" fill="url(#paint25_linear_845_842)"/>
<g filter="url(#filter1_b_845_842)">
<circle cx="170" cy="427" r="41" fill="white" fill-opacity="0.1"/>
</g>
<path d="M168.056 410.928H171.512V415.216C173.368 415.429 174.872 416.091 176.024 417.2C177.197 418.288 177.837 419.813 177.944 421.776H174.424C174.339 421.136 174.157 420.603 173.88 420.176C173.603 419.749 173.251 419.408 172.824 419.152C172.397 418.875 171.907 418.683 171.352 418.576C170.819 418.448 170.221 418.384 169.56 418.384C169.133 418.384 168.664 418.416 168.152 418.48C167.64 418.544 167.181 418.683 166.776 418.896C166.349 419.109 165.997 419.419 165.72 419.824C165.443 420.208 165.304 420.688 165.304 421.264C165.304 422.011 165.475 422.608 165.816 423.056C166.157 423.504 166.595 423.867 167.128 424.144C167.683 424.4 168.291 424.603 168.952 424.752C169.635 424.88 170.307 425.008 170.968 425.136C172.035 425.328 173.027 425.552 173.944 425.808C174.861 426.064 175.651 426.427 176.312 426.896C176.995 427.365 177.528 427.963 177.912 428.688C178.296 429.413 178.488 430.331 178.488 431.44C178.488 432.571 178.296 433.552 177.912 434.384C177.528 435.195 177.005 435.877 176.344 436.432C175.704 436.965 174.947 437.381 174.072 437.68C173.219 437.957 172.312 438.128 171.352 438.192V442.384H167.928V438.096C166.925 437.968 165.997 437.733 165.144 437.392C164.312 437.029 163.576 436.56 162.936 435.984C162.317 435.408 161.816 434.736 161.432 433.968C161.048 433.179 160.813 432.283 160.728 431.28H164.44C164.568 431.963 164.824 432.539 165.208 433.008C165.592 433.456 166.051 433.819 166.584 434.096C167.117 434.373 167.693 434.576 168.312 434.704C168.931 434.811 169.539 434.864 170.136 434.864C170.712 434.864 171.277 434.821 171.832 434.736C172.387 434.629 172.877 434.459 173.304 434.224C173.752 433.968 174.115 433.637 174.392 433.232C174.669 432.805 174.808 432.283 174.808 431.664C174.808 430.939 174.595 430.384 174.168 430C173.763 429.595 173.24 429.285 172.6 429.072C171.981 428.837 171.299 428.667 170.552 428.56C169.827 428.453 169.144 428.325 168.504 428.176C167.48 427.963 166.541 427.696 165.688 427.376C164.835 427.035 164.088 426.608 163.448 426.096C162.829 425.584 162.339 424.965 161.976 424.24C161.635 423.515 161.464 422.64 161.464 421.616C161.464 420.592 161.645 419.696 162.008 418.928C162.392 418.16 162.883 417.52 163.48 417.008C164.099 416.475 164.803 416.069 165.592 415.792C166.381 415.493 167.203 415.291 168.056 415.184V410.928Z" fill="white"/>
<g filter="url(#filter2_b_845_842)">
<circle cx="348" cy="482" r="41" fill="white" fill-opacity="0.1"/>
</g>
<path d="M351.464 493.256C348.904 493.256 346.813 492.627 345.192 491.368C343.571 490.088 342.451 488.275 341.832 485.928H338.408L338.92 482.952H341.448C341.427 482.525 341.416 482.099 341.416 481.672C341.416 481.245 341.448 480.829 341.512 480.424H338.504L339.016 477.448H341.928C342.568 475.101 343.677 473.299 345.256 472.04C346.856 470.781 348.893 470.152 351.368 470.152C352.819 470.152 354.077 470.365 355.144 470.792C356.211 471.197 357.192 471.848 358.088 472.744L356.168 475.368C355.421 474.728 354.685 474.248 353.96 473.928C353.235 473.608 352.36 473.448 351.336 473.448C349.971 473.448 348.797 473.8 347.816 474.504C346.856 475.187 346.184 476.168 345.8 477.448H354.248L353.736 480.424H345.16C345.117 480.829 345.096 481.256 345.096 481.704C345.096 482.131 345.117 482.547 345.16 482.952H353.256L352.744 485.928H345.8C346.12 487.208 346.803 488.211 347.848 488.936C348.893 489.64 350.12 489.992 351.528 489.992C352.552 489.992 353.437 489.853 354.184 489.576C354.931 489.277 355.677 488.776 356.424 488.072C356.744 488.499 357.053 488.915 357.352 489.32C357.672 489.725 357.981 490.141 358.28 490.568C357.427 491.464 356.435 492.136 355.304 492.584C354.173 493.032 352.893 493.256 351.464 493.256Z" fill="white"/>
<g filter="url(#filter3_b_845_842)">
<circle cx="487" cy="332" r="41" fill="#0ABFC2" fill-opacity="0.1"/>
</g>
<path d="M462.518 331.068H466.126V327.394H468.26V331.068H471.89V333.224H468.26V336.92H466.126V333.224H462.518V331.068ZM479.578 340H477.026V328.032H473.858V326.294C474.723 326.265 475.486 326.125 476.146 325.876C476.806 325.612 477.327 325.135 477.708 324.446H479.578V340ZM486.658 334.192C487.01 333.884 487.399 333.547 487.824 333.18C488.264 332.813 488.675 332.432 489.056 332.036C489.452 331.625 489.775 331.185 490.024 330.716C490.288 330.247 490.42 329.741 490.42 329.198C490.42 328.406 490.186 327.768 489.716 327.284C489.247 326.8 488.572 326.558 487.692 326.558C486.988 326.558 486.394 326.719 485.91 327.042C485.426 327.365 485.126 327.797 485.008 328.34H482.5C482.559 327.665 482.742 327.064 483.05 326.536C483.373 326.008 483.776 325.575 484.26 325.238C484.744 324.901 485.272 324.659 485.844 324.512C486.431 324.351 487.098 324.27 487.846 324.27C488.55 324.27 489.21 324.365 489.826 324.556C490.442 324.747 490.978 325.033 491.432 325.414C491.902 325.795 492.268 326.279 492.532 326.866C492.811 327.438 492.95 328.113 492.95 328.89C492.95 329.506 492.87 330.071 492.708 330.584C492.547 331.097 492.327 331.574 492.048 332.014C491.77 332.454 491.447 332.865 491.08 333.246C490.728 333.627 490.354 333.987 489.958 334.324C489.43 334.779 488.961 335.175 488.55 335.512C488.154 335.835 487.795 336.128 487.472 336.392C487.15 336.656 486.856 336.898 486.592 337.118C486.328 337.323 486.079 337.529 485.844 337.734H492.95V340H482.368V337.91L486.658 334.192ZM498.622 331.442C498.05 331.442 497.544 331.347 497.104 331.156C496.678 330.965 496.312 330.709 496.004 330.386C495.71 330.063 495.49 329.682 495.344 329.242C495.197 328.802 495.124 328.325 495.124 327.812C495.124 326.756 495.417 325.891 496.004 325.216C496.605 324.527 497.478 324.182 498.622 324.182C499.736 324.182 500.587 324.527 501.174 325.216C501.775 325.891 502.076 326.756 502.076 327.812C502.076 328.325 501.995 328.802 501.834 329.242C501.687 329.682 501.467 330.063 501.174 330.386C500.88 330.709 500.521 330.965 500.096 331.156C499.67 331.347 499.179 331.442 498.622 331.442ZM496.928 340L506.696 324.446H509.204L499.436 340H496.928ZM498.622 326.096C498.064 326.096 497.676 326.272 497.456 326.624C497.236 326.961 497.126 327.357 497.126 327.812C497.126 328.281 497.236 328.685 497.456 329.022C497.676 329.359 498.064 329.528 498.622 329.528C499.15 329.528 499.516 329.359 499.722 329.022C499.927 328.67 500.03 328.267 500.03 327.812C500.03 327.357 499.927 326.961 499.722 326.624C499.516 326.272 499.15 326.096 498.622 326.096ZM507.642 340.242C507.07 340.242 506.564 340.147 506.124 339.956C505.698 339.765 505.332 339.509 505.024 339.186C504.73 338.863 504.51 338.482 504.364 338.042C504.217 337.602 504.144 337.125 504.144 336.612C504.144 335.556 504.437 334.691 505.024 334.016C505.625 333.327 506.498 332.982 507.642 332.982C508.756 332.982 509.614 333.327 510.216 334.016C510.817 334.691 511.118 335.556 511.118 336.612C511.118 337.125 511.037 337.602 510.876 338.042C510.729 338.482 510.509 338.863 510.216 339.186C509.922 339.509 509.556 339.765 509.116 339.956C508.69 340.147 508.199 340.242 507.642 340.242ZM507.62 334.896C507.092 334.896 506.71 335.065 506.476 335.402C506.256 335.739 506.146 336.143 506.146 336.612C506.146 337.081 506.256 337.485 506.476 337.822C506.71 338.159 507.092 338.328 507.62 338.328C508.162 338.328 508.536 338.159 508.742 337.822C508.947 337.47 509.05 337.067 509.05 336.612C509.05 336.377 509.028 336.157 508.984 335.952C508.94 335.747 508.859 335.571 508.742 335.424C508.639 335.263 508.492 335.138 508.302 335.05C508.126 334.947 507.898 334.896 507.62 334.896Z" fill="#00FBFF"/>
<rect x="172.798" y="268.405" width="23" height="23" transform="rotate(-49.957 172.798 268.405)" stroke="url(#paint26_linear_845_842)"/>
<rect x="122.798" y="358.405" width="13" height="13" transform="rotate(-49.957 122.798 358.405)" stroke="url(#paint27_linear_845_842)"/>
<circle cx="691" cy="401" r="10.5" stroke="#D9D9D9"/>
<circle cx="342" cy="106" r="10.5" stroke="#D9D9D9"/>
<defs>
<filter id="filter0_f_845_842" x="48.5" y="27" width="551.493" height="542.5" filterUnits="userSpaceOnUse" color-interpolation-filters="sRGB">
<feFlood flood-opacity="0" result="BackgroundImageFix"/>
<feBlend mode="normal" in="SourceGraphic" in2="BackgroundImageFix" result="shape"/>
<feGaussianBlur stdDeviation="57" result="effect1_foregroundBlur_845_842"/>
</filter>
<filter id="filter1_b_845_842" x="85" y="342" width="170" height="170" filterUnits="userSpaceOnUse" color-interpolation-filters="sRGB">
<feFlood flood-opacity="0" result="BackgroundImageFix"/>
<feGaussianBlur in="BackgroundImageFix" stdDeviation="22"/>
<feComposite in2="SourceAlpha" operator="in" result="effect1_backgroundBlur_845_842"/>
<feBlend mode="normal" in="SourceGraphic" in2="effect1_backgroundBlur_845_842" result="shape"/>
</filter>
<filter id="filter2_b_845_842" x="263" y="397" width="170" height="170" filterUnits="userSpaceOnUse" color-interpolation-filters="sRGB">
<feFlood flood-opacity="0" result="BackgroundImageFix"/>
<feGaussianBlur in="BackgroundImageFix" stdDeviation="22"/>
<feComposite in2="SourceAlpha" operator="in" result="effect1_backgroundBlur_845_842"/>
<feBlend mode="normal" in="SourceGraphic" in2="effect1_backgroundBlur_845_842" result="shape"/>
</filter>
<filter id="filter3_b_845_842" x="402" y="247" width="170" height="170" filterUnits="userSpaceOnUse" color-interpolation-filters="sRGB">
<feFlood flood-opacity="0" result="BackgroundImageFix"/>
<feGaussianBlur in="BackgroundImageFix" stdDeviation="22"/>
<feComposite in2="SourceAlpha" operator="in" result="effect1_backgroundBlur_845_842"/>
<feBlend mode="normal" in="SourceGraphic" in2="effect1_backgroundBlur_845_842" result="shape"/>
</filter>
<linearGradient id="paint0_linear_845_842" x1="588.5" y1="320" x2="588.5" y2="511" gradientUnits="userSpaceOnUse">
<stop offset="0.172601" stop-color="#2E8D99" stop-opacity="0"/>
<stop offset="0.507028" stop-color="#00B5FF"/>
<stop offset="0.868043" stop-color="#2E3699" stop-opacity="0"/>
</linearGradient>
<linearGradient id="paint1_linear_845_842" x1="718.5" y1="100" x2="718.5" y2="291" gradientUnits="userSpaceOnUse">
<stop offset="0.172601" stop-color="#2E8D99" stop-opacity="0"/>
<stop offset="0.507028" stop-color="#00B5FF"/>
<stop offset="0.868043" stop-color="#2E3699" stop-opacity="0"/>
</linearGradient>
<linearGradient id="paint2_linear_845_842" x1="238.5" y1="250" x2="238.5" y2="441" gradientUnits="userSpaceOnUse">
<stop offset="0.172601" stop-color="#2E8D99" stop-opacity="0"/>
<stop offset="0.507028" stop-color="white"/>
<stop offset="0.868043" stop-color="#2E3699" stop-opacity="0"/>
</linearGradient>
<linearGradient id="paint3_linear_845_842" x1="178.5" y1="310" x2="178.5" y2="501" gradientUnits="userSpaceOnUse">
<stop offset="0.172601" stop-color="#2E8D99" stop-opacity="0"/>
<stop offset="0.507028" stop-color="white"/>
<stop offset="0.868043" stop-color="#2E3699" stop-opacity="0"/>
</linearGradient>
<linearGradient id="paint4_linear_845_842" x1="372.455" y1="210.04" x2="226.654" y2="810.914" gradientUnits="userSpaceOnUse">
<stop stop-color="#00CDC2"/>
<stop offset="1" stop-color="#0D1A8C" stop-opacity="0"/>
</linearGradient>
<linearGradient id="paint5_linear_845_842" x1="682.216" y1="282.411" x2="542.712" y2="638.681" gradientUnits="userSpaceOnUse">
<stop stop-color="#009B90"/>
<stop offset="1" stop-color="#16134E" stop-opacity="0"/>
</linearGradient>
<linearGradient id="paint6_linear_845_842" x1="644.991" y1="199.678" x2="529.236" y2="345.864" gradientUnits="userSpaceOnUse">
<stop stop-color="white"/>
<stop offset="1" stop-color="#87D7FD"/>
</linearGradient>
<linearGradient id="paint7_linear_845_842" x1="505.553" y1="374.245" x2="478.417" y2="408.215" gradientUnits="userSpaceOnUse">
<stop stop-color="white"/>
<stop offset="1" stop-color="white" stop-opacity="0"/>
</linearGradient>
<linearGradient id="paint8_linear_845_842" x1="615.553" y1="154.245" x2="588.417" y2="188.215" gradientUnits="userSpaceOnUse">
<stop stop-color="white"/>
<stop offset="1" stop-color="white" stop-opacity="0"/>
</linearGradient>
<linearGradient id="paint9_linear_845_842" x1="415.553" y1="544.245" x2="388.417" y2="578.215" gradientUnits="userSpaceOnUse">
<stop stop-color="white"/>
<stop offset="1" stop-color="white" stop-opacity="0"/>
</linearGradient>
<linearGradient id="paint10_linear_845_842" x1="264" y1="393.015" x2="165" y2="801.015" gradientUnits="userSpaceOnUse">
<stop stop-color="#00CDC2"/>
<stop offset="1" stop-color="#0D1A8C" stop-opacity="0"/>
</linearGradient>
<linearGradient id="paint11_linear_845_842" x1="474.331" y1="442.155" x2="379.607" y2="684.066" gradientUnits="userSpaceOnUse">
<stop stop-color="#009B90"/>
<stop offset="1" stop-color="#16134E" stop-opacity="0"/>
</linearGradient>
<linearGradient id="paint12_linear_845_842" x1="449.055" y1="385.979" x2="370.456" y2="485.241" gradientUnits="userSpaceOnUse">
<stop stop-color="white"/>
<stop offset="1" stop-color="#87D7FD"/>
</linearGradient>
<linearGradient id="paint13_linear_845_842" x1="116.091" y1="496.776" x2="31.4908" y2="845.431" gradientUnits="userSpaceOnUse">
<stop stop-color="#00CDC2"/>
<stop offset="1" stop-color="#0D1A8C" stop-opacity="0"/>
</linearGradient>
<linearGradient id="paint14_linear_845_842" x1="295.829" y1="538.77" x2="214.882" y2="745.494" gradientUnits="userSpaceOnUse">
<stop stop-color="#009B90"/>
<stop offset="1" stop-color="#16134E" stop-opacity="0"/>
</linearGradient>
<linearGradient id="paint15_linear_845_842" x1="274.229" y1="490.764" x2="207.063" y2="575.588" gradientUnits="userSpaceOnUse">
<stop stop-color="white"/>
<stop offset="1" stop-color="#87D7FD"/>
</linearGradient>
<linearGradient id="paint16_linear_845_842" x1="210.75" y1="176.149" x2="493.93" y2="923.313" gradientUnits="userSpaceOnUse">
<stop stop-color="#04FBF3"/>
<stop offset="0.482292" stop-color="#191038"/>
</linearGradient>
<linearGradient id="paint17_linear_845_842" x1="729.868" y1="-261.617" x2="177.66" y2="511.469" gradientUnits="userSpaceOnUse">
<stop offset="0.576042" stop-color="#191039"/>
<stop offset="1" stop-color="#03B4C5"/>
</linearGradient>
<linearGradient id="paint18_linear_845_842" x1="290.084" y1="263.562" x2="157.391" y2="595.295" gradientUnits="userSpaceOnUse">
<stop stop-color="#04FBF3"/>
<stop offset="1" stop-color="#1B1136"/>
</linearGradient>
<linearGradient id="paint19_linear_845_842" x1="210.75" y1="176.149" x2="493.93" y2="923.313" gradientUnits="userSpaceOnUse">
<stop stop-color="#04FBF3"/>
<stop offset="0.482292" stop-color="#191038"/>
</linearGradient>
<linearGradient id="paint20_linear_845_842" x1="729.868" y1="-261.617" x2="177.66" y2="511.469" gradientUnits="userSpaceOnUse">
<stop offset="0.576042" stop-color="#191039"/>
<stop offset="1" stop-color="#03B4C5"/>
</linearGradient>
<linearGradient id="paint21_linear_845_842" x1="290.084" y1="263.562" x2="157.391" y2="595.295" gradientUnits="userSpaceOnUse">
<stop stop-color="#04FBF3"/>
<stop offset="1" stop-color="#1B1136"/>
</linearGradient>
<linearGradient id="paint22_linear_845_842" x1="588.5" y1="0" x2="588.5" y2="191" gradientUnits="userSpaceOnUse">
<stop offset="0.172601" stop-color="#2E8D99" stop-opacity="0"/>
<stop offset="0.507028" stop-color="#00B5FF"/>
<stop offset="0.868043" stop-color="#2E3699" stop-opacity="0"/>
</linearGradient>
<linearGradient id="paint23_linear_845_842" x1="358.5" y1="20" x2="358.5" y2="211" gradientUnits="userSpaceOnUse">
<stop offset="0.172601" stop-color="#2E8D99" stop-opacity="0"/>
<stop offset="0.507028" stop-color="#00B5FF"/>
<stop offset="0.868043" stop-color="#2E3699" stop-opacity="0"/>
</linearGradient>
<linearGradient id="paint24_linear_845_842" x1="138.5" y1="150" x2="138.5" y2="341" gradientUnits="userSpaceOnUse">
<stop offset="0.172601" stop-color="#2E8D99" stop-opacity="0"/>
<stop offset="0.507028" stop-color="#00B5FF"/>
<stop offset="0.868043" stop-color="#2E3699" stop-opacity="0"/>
</linearGradient>
<linearGradient id="paint25_linear_845_842" x1="718.5" y1="400" x2="718.5" y2="591" gradientUnits="userSpaceOnUse">
<stop offset="0.172601" stop-color="#2E8D99" stop-opacity="0"/>
<stop offset="0.507028" stop-color="#00B5FF"/>
<stop offset="0.868043" stop-color="#2E3699" stop-opacity="0"/>
</linearGradient>
<linearGradient id="paint26_linear_845_842" x1="184.094" y1="268.466" x2="169.548" y2="292.69" gradientUnits="userSpaceOnUse">
<stop stop-color="#01B1FB"/>
<stop offset="1" stop-color="#01B1FB" stop-opacity="0"/>
</linearGradient>
<linearGradient id="paint27_linear_845_842" x1="129.094" y1="358.466" x2="120.609" y2="372.597" gradientUnits="userSpaceOnUse">
<stop stop-color="#01B1FB"/>
<stop offset="1" stop-color="#01B1FB" stop-opacity="0"/>
</linearGradient>
</defs>
</svg>
