<svg width="308" height="512" viewBox="0 0 308 512" fill="none" xmlns="http://www.w3.org/2000/svg">
<rect x="259" y="100" width="1" height="191" fill="url(#paint0_linear_2501_233)"/>
<rect x="199" y="160" width="1" height="191" fill="url(#paint1_linear_2501_233)"/>
<rect x="169" y="330" width="1" height="191" fill="url(#paint2_linear_2501_233)"/>
<path d="M120 658.401V352.118L216.848 384.672V658.401H120Z" fill="url(#paint3_linear_2501_233)"/>
<path d="M308 658.401V350.49L216.848 384.672V658.401H308Z" fill="url(#paint4_linear_2501_233)"/>
<path d="M211.923 320.267L307.559 350.926L216.814 384.701L120.373 352.333L211.923 320.267Z" fill="url(#paint5_linear_2501_233)"/>
<rect x="159" width="1" height="191" fill="url(#paint6_linear_2501_233)"/>
<rect opacity="0.2" y="300" width="1" height="191" fill="url(#paint7_linear_2501_233)"/>
<rect opacity="0.2" x="20" y="120" width="1" height="191" fill="url(#paint8_linear_2501_233)"/>
<g filter="url(#filter0_b_2501_233)">
<circle cx="191" cy="277" r="41" fill="white" fill-opacity="0.1"/>
</g>
<path d="M189.056 260.928H192.512V265.216C194.368 265.429 195.872 266.091 197.024 267.2C198.197 268.288 198.837 269.813 198.944 271.776H195.424C195.339 271.136 195.157 270.603 194.88 270.176C194.603 269.749 194.251 269.408 193.824 269.152C193.397 268.875 192.907 268.683 192.352 268.576C191.819 268.448 191.221 268.384 190.56 268.384C190.133 268.384 189.664 268.416 189.152 268.48C188.64 268.544 188.181 268.683 187.776 268.896C187.349 269.109 186.997 269.419 186.72 269.824C186.443 270.208 186.304 270.688 186.304 271.264C186.304 272.011 186.475 272.608 186.816 273.056C187.157 273.504 187.595 273.867 188.128 274.144C188.683 274.4 189.291 274.603 189.952 274.752C190.635 274.88 191.307 275.008 191.968 275.136C193.035 275.328 194.027 275.552 194.944 275.808C195.861 276.064 196.651 276.427 197.312 276.896C197.995 277.365 198.528 277.963 198.912 278.688C199.296 279.413 199.488 280.331 199.488 281.44C199.488 282.571 199.296 283.552 198.912 284.384C198.528 285.195 198.005 285.877 197.344 286.432C196.704 286.965 195.947 287.381 195.072 287.68C194.219 287.957 193.312 288.128 192.352 288.192V292.384H188.928V288.096C187.925 287.968 186.997 287.733 186.144 287.392C185.312 287.029 184.576 286.56 183.936 285.984C183.317 285.408 182.816 284.736 182.432 283.968C182.048 283.179 181.813 282.283 181.728 281.28H185.44C185.568 281.963 185.824 282.539 186.208 283.008C186.592 283.456 187.051 283.819 187.584 284.096C188.117 284.373 188.693 284.576 189.312 284.704C189.931 284.811 190.539 284.864 191.136 284.864C191.712 284.864 192.277 284.821 192.832 284.736C193.387 284.629 193.877 284.459 194.304 284.224C194.752 283.968 195.115 283.637 195.392 283.232C195.669 282.805 195.808 282.283 195.808 281.664C195.808 280.939 195.595 280.384 195.168 280C194.763 279.595 194.24 279.285 193.6 279.072C192.981 278.837 192.299 278.667 191.552 278.56C190.827 278.453 190.144 278.325 189.504 278.176C188.48 277.963 187.541 277.696 186.688 277.376C185.835 277.035 185.088 276.608 184.448 276.096C183.829 275.584 183.339 274.965 182.976 274.24C182.635 273.515 182.464 272.64 182.464 271.616C182.464 270.592 182.645 269.696 183.008 268.928C183.392 268.16 183.883 267.52 184.48 267.008C185.099 266.475 185.803 266.069 186.592 265.792C187.381 265.493 188.203 265.291 189.056 265.184V260.928Z" fill="white"/>
<rect x="193.798" y="118.405" width="23" height="23" transform="rotate(-49.957 193.798 118.405)" stroke="url(#paint9_linear_2501_233)"/>
<rect x="143.798" y="208.405" width="13" height="13" transform="rotate(-49.957 143.798 208.405)" stroke="url(#paint10_linear_2501_233)"/>
<circle opacity="0.1" cx="45" cy="311" r="10.5" stroke="#D9D9D9"/>
<g filter="url(#filter1_b_2501_233)">
<rect x="133" y="362" width="158" height="62" rx="31" fill="white" fill-opacity="0.1"/>
</g>
<path d="M161.518 392.068H165.126V388.394H167.26V392.068H170.89V394.224H167.26V397.92H165.126V394.224H161.518V392.068ZM177.258 395.192C177.61 394.884 177.999 394.547 178.424 394.18C178.864 393.813 179.275 393.432 179.656 393.036C180.052 392.625 180.375 392.185 180.624 391.716C180.888 391.247 181.02 390.741 181.02 390.198C181.02 389.406 180.785 388.768 180.316 388.284C179.847 387.8 179.172 387.558 178.292 387.558C177.588 387.558 176.994 387.719 176.51 388.042C176.026 388.365 175.725 388.797 175.608 389.34H173.1C173.159 388.665 173.342 388.064 173.65 387.536C173.973 387.008 174.376 386.575 174.86 386.238C175.344 385.901 175.872 385.659 176.444 385.512C177.031 385.351 177.698 385.27 178.446 385.27C179.15 385.27 179.81 385.365 180.426 385.556C181.042 385.747 181.577 386.033 182.032 386.414C182.501 386.795 182.868 387.279 183.132 387.866C183.411 388.438 183.55 389.113 183.55 389.89C183.55 390.506 183.469 391.071 183.308 391.584C183.147 392.097 182.927 392.574 182.648 393.014C182.369 393.454 182.047 393.865 181.68 394.246C181.328 394.627 180.954 394.987 180.558 395.324C180.03 395.779 179.561 396.175 179.15 396.512C178.754 396.835 178.395 397.128 178.072 397.392C177.749 397.656 177.456 397.898 177.192 398.118C176.928 398.323 176.679 398.529 176.444 398.734H183.55V401H172.968V398.91L177.258 395.192ZM194.611 393.564C194.391 393.901 194.134 394.187 193.841 394.422C193.548 394.657 193.225 394.855 192.873 395.016C192.536 395.163 192.176 395.273 191.795 395.346C191.414 395.419 191.032 395.456 190.651 395.456C189.918 395.456 189.243 395.346 188.627 395.126C188.026 394.891 187.498 394.561 187.043 394.136C186.588 393.711 186.236 393.19 185.987 392.574C185.738 391.958 185.613 391.261 185.613 390.484C185.613 389.692 185.752 388.973 186.031 388.328C186.324 387.683 186.713 387.14 187.197 386.7C187.696 386.245 188.275 385.901 188.935 385.666C189.61 385.417 190.336 385.292 191.113 385.292C192.198 385.277 193.137 385.519 193.929 386.018C194.736 386.502 195.352 387.118 195.777 387.866C196.217 388.599 196.525 389.443 196.701 390.396C196.892 391.335 197.002 392.281 197.031 393.234C197.031 394.231 196.936 395.207 196.745 396.16C196.554 397.113 196.224 397.964 195.755 398.712C195.3 399.445 194.684 400.039 193.907 400.494C193.13 400.934 192.154 401.154 190.981 401.154C190.336 401.154 189.72 401.081 189.133 400.934C188.561 400.773 188.04 400.538 187.571 400.23C187.102 399.907 186.706 399.511 186.383 399.042C186.06 398.558 185.848 397.986 185.745 397.326H188.363C188.554 397.854 188.898 398.25 189.397 398.514C189.896 398.763 190.424 398.888 190.981 398.888C191.421 398.888 191.81 398.829 192.147 398.712C192.484 398.58 192.785 398.411 193.049 398.206C193.313 398.001 193.54 397.759 193.731 397.48C193.922 397.187 194.076 396.879 194.193 396.556C194.384 396.072 194.501 395.581 194.545 395.082C194.589 394.569 194.611 394.063 194.611 393.564ZM188.165 390.33C188.165 391.225 188.422 391.929 188.935 392.442C189.463 392.955 190.167 393.212 191.047 393.212C191.443 393.212 191.817 393.153 192.169 393.036C192.536 392.904 192.851 392.728 193.115 392.508C193.379 392.273 193.584 391.995 193.731 391.672C193.892 391.335 193.98 390.968 193.995 390.572C193.995 390.161 193.929 389.773 193.797 389.406C193.665 389.039 193.474 388.724 193.225 388.46C192.976 388.181 192.668 387.961 192.301 387.8C191.949 387.639 191.553 387.558 191.113 387.558C190.262 387.558 189.558 387.807 189.001 388.306C188.458 388.805 188.18 389.479 188.165 390.33ZM217.418 393.212C217.418 394.4 217.293 395.485 217.044 396.468C216.809 397.436 216.435 398.265 215.922 398.954C215.423 399.643 214.793 400.179 214.03 400.56C213.267 400.941 212.365 401.132 211.324 401.132C210.283 401.132 209.381 400.949 208.618 400.582C207.855 400.201 207.225 399.673 206.726 398.998C206.227 398.323 205.853 397.509 205.604 396.556C205.355 395.603 205.23 394.539 205.23 393.366C205.23 392.163 205.347 391.063 205.582 390.066C205.817 389.069 206.183 388.211 206.682 387.492C207.181 386.773 207.811 386.223 208.574 385.842C209.351 385.446 210.268 385.248 211.324 385.248C212.351 385.248 213.245 385.439 214.008 385.82C214.771 386.201 215.401 386.744 215.9 387.448C216.413 388.152 216.795 388.995 217.044 389.978C217.293 390.946 217.418 392.024 217.418 393.212ZM207.76 393.212C207.76 394.019 207.819 394.767 207.936 395.456C208.053 396.145 208.251 396.747 208.53 397.26C208.809 397.759 209.175 398.155 209.63 398.448C210.085 398.727 210.649 398.866 211.324 398.866C211.984 398.866 212.541 398.727 212.996 398.448C213.451 398.155 213.817 397.759 214.096 397.26C214.375 396.747 214.573 396.145 214.69 395.456C214.807 394.767 214.866 394.019 214.866 393.212C214.866 392.42 214.807 391.679 214.69 390.99C214.573 390.286 214.375 389.685 214.096 389.186C213.817 388.673 213.451 388.269 212.996 387.976C212.541 387.683 211.984 387.536 211.324 387.536C210.649 387.536 210.085 387.683 209.63 387.976C209.175 388.269 208.809 388.673 208.53 389.186C208.251 389.685 208.053 390.286 207.936 390.99C207.819 391.679 207.76 392.42 207.76 393.212ZM231.877 393.212C231.877 394.4 231.752 395.485 231.503 396.468C231.268 397.436 230.894 398.265 230.381 398.954C229.882 399.643 229.252 400.179 228.489 400.56C227.726 400.941 226.824 401.132 225.783 401.132C224.742 401.132 223.84 400.949 223.077 400.582C222.314 400.201 221.684 399.673 221.185 398.998C220.686 398.323 220.312 397.509 220.063 396.556C219.814 395.603 219.689 394.539 219.689 393.366C219.689 392.163 219.806 391.063 220.041 390.066C220.276 389.069 220.642 388.211 221.141 387.492C221.64 386.773 222.27 386.223 223.033 385.842C223.81 385.446 224.727 385.248 225.783 385.248C226.81 385.248 227.704 385.439 228.467 385.82C229.23 386.201 229.86 386.744 230.359 387.448C230.872 388.152 231.254 388.995 231.503 389.978C231.752 390.946 231.877 392.024 231.877 393.212ZM222.219 393.212C222.219 394.019 222.278 394.767 222.395 395.456C222.512 396.145 222.71 396.747 222.989 397.26C223.268 397.759 223.634 398.155 224.089 398.448C224.544 398.727 225.108 398.866 225.783 398.866C226.443 398.866 227 398.727 227.455 398.448C227.91 398.155 228.276 397.759 228.555 397.26C228.834 396.747 229.032 396.145 229.149 395.456C229.266 394.767 229.325 394.019 229.325 393.212C229.325 392.42 229.266 391.679 229.149 390.99C229.032 390.286 228.834 389.685 228.555 389.186C228.276 388.673 227.91 388.269 227.455 387.976C227 387.683 226.443 387.536 225.783 387.536C225.108 387.536 224.544 387.683 224.089 387.976C223.634 388.269 223.268 388.673 222.989 389.186C222.71 389.685 222.512 390.286 222.395 390.99C222.278 391.679 222.219 392.42 222.219 393.212ZM246.336 393.212C246.336 394.4 246.211 395.485 245.962 396.468C245.727 397.436 245.353 398.265 244.84 398.954C244.341 399.643 243.711 400.179 242.948 400.56C242.185 400.941 241.283 401.132 240.242 401.132C239.201 401.132 238.299 400.949 237.536 400.582C236.773 400.201 236.143 399.673 235.644 398.998C235.145 398.323 234.771 397.509 234.522 396.556C234.273 395.603 234.148 394.539 234.148 393.366C234.148 392.163 234.265 391.063 234.5 390.066C234.735 389.069 235.101 388.211 235.6 387.492C236.099 386.773 236.729 386.223 237.492 385.842C238.269 385.446 239.186 385.248 240.242 385.248C241.269 385.248 242.163 385.439 242.926 385.82C243.689 386.201 244.319 386.744 244.818 387.448C245.331 388.152 245.713 388.995 245.962 389.978C246.211 390.946 246.336 392.024 246.336 393.212ZM236.678 393.212C236.678 394.019 236.737 394.767 236.854 395.456C236.971 396.145 237.169 396.747 237.448 397.26C237.727 397.759 238.093 398.155 238.548 398.448C239.003 398.727 239.567 398.866 240.242 398.866C240.902 398.866 241.459 398.727 241.914 398.448C242.369 398.155 242.735 397.759 243.014 397.26C243.293 396.747 243.491 396.145 243.608 395.456C243.725 394.767 243.784 394.019 243.784 393.212C243.784 392.42 243.725 391.679 243.608 390.99C243.491 390.286 243.293 389.685 243.014 389.186C242.735 388.673 242.369 388.269 241.914 387.976C241.459 387.683 240.902 387.536 240.242 387.536C239.567 387.536 239.003 387.683 238.548 387.976C238.093 388.269 237.727 388.673 237.448 389.186C237.169 389.685 236.971 390.286 236.854 390.99C236.737 391.679 236.678 392.42 236.678 393.212ZM253.689 382.388H256.065V385.336C257.341 385.483 258.375 385.937 259.167 386.7C259.974 387.448 260.414 388.497 260.487 389.846H258.067C258.008 389.406 257.884 389.039 257.693 388.746C257.502 388.453 257.26 388.218 256.967 388.042C256.674 387.851 256.336 387.719 255.955 387.646C255.588 387.558 255.178 387.514 254.723 387.514C254.43 387.514 254.107 387.536 253.755 387.58C253.403 387.624 253.088 387.719 252.809 387.866C252.516 388.013 252.274 388.225 252.083 388.504C251.892 388.768 251.797 389.098 251.797 389.494C251.797 390.007 251.914 390.418 252.149 390.726C252.384 391.034 252.684 391.283 253.051 391.474C253.432 391.65 253.85 391.789 254.305 391.892C254.774 391.98 255.236 392.068 255.691 392.156C256.424 392.288 257.106 392.442 257.737 392.618C258.368 392.794 258.91 393.043 259.365 393.366C259.834 393.689 260.201 394.099 260.465 394.598C260.729 395.097 260.861 395.727 260.861 396.49C260.861 397.267 260.729 397.942 260.465 398.514C260.201 399.071 259.842 399.541 259.387 399.922C258.947 400.289 258.426 400.575 257.825 400.78C257.238 400.971 256.615 401.088 255.955 401.132V404.014H253.601V401.066C252.912 400.978 252.274 400.817 251.687 400.582C251.115 400.333 250.609 400.01 250.169 399.614C249.744 399.218 249.399 398.756 249.135 398.228C248.871 397.685 248.71 397.069 248.651 396.38H251.203C251.291 396.849 251.467 397.245 251.731 397.568C251.995 397.876 252.31 398.125 252.677 398.316C253.044 398.507 253.44 398.646 253.865 398.734C254.29 398.807 254.708 398.844 255.119 398.844C255.515 398.844 255.904 398.815 256.285 398.756C256.666 398.683 257.004 398.565 257.297 398.404C257.605 398.228 257.854 398.001 258.045 397.722C258.236 397.429 258.331 397.069 258.331 396.644C258.331 396.145 258.184 395.764 257.891 395.5C257.612 395.221 257.253 395.009 256.813 394.862C256.388 394.701 255.918 394.583 255.405 394.51C254.906 394.437 254.437 394.349 253.997 394.246C253.293 394.099 252.648 393.916 252.061 393.696C251.474 393.461 250.961 393.168 250.521 392.816C250.096 392.464 249.758 392.039 249.509 391.54C249.274 391.041 249.157 390.44 249.157 389.736C249.157 389.032 249.282 388.416 249.531 387.888C249.795 387.36 250.132 386.92 250.543 386.568C250.968 386.201 251.452 385.923 251.995 385.732C252.538 385.527 253.102 385.387 253.689 385.314V382.388Z" fill="white"/>
<defs>
<filter id="filter0_b_2501_233" x="106" y="192" width="170" height="170" filterUnits="userSpaceOnUse" color-interpolation-filters="sRGB">
<feFlood flood-opacity="0" result="BackgroundImageFix"/>
<feGaussianBlur in="BackgroundImageFix" stdDeviation="22"/>
<feComposite in2="SourceAlpha" operator="in" result="effect1_backgroundBlur_2501_233"/>
<feBlend mode="normal" in="SourceGraphic" in2="effect1_backgroundBlur_2501_233" result="shape"/>
</filter>
<filter id="filter1_b_2501_233" x="89" y="318" width="246" height="150" filterUnits="userSpaceOnUse" color-interpolation-filters="sRGB">
<feFlood flood-opacity="0" result="BackgroundImageFix"/>
<feGaussianBlur in="BackgroundImageFix" stdDeviation="22"/>
<feComposite in2="SourceAlpha" operator="in" result="effect1_backgroundBlur_2501_233"/>
<feBlend mode="normal" in="SourceGraphic" in2="effect1_backgroundBlur_2501_233" result="shape"/>
</filter>
<linearGradient id="paint0_linear_2501_233" x1="259.5" y1="100" x2="259.5" y2="291" gradientUnits="userSpaceOnUse">
<stop offset="0.172601" stop-color="#2E8D99" stop-opacity="0"/>
<stop offset="0.507028" stop-color="white"/>
<stop offset="0.868043" stop-color="#2E3699" stop-opacity="0"/>
</linearGradient>
<linearGradient id="paint1_linear_2501_233" x1="199.5" y1="160" x2="199.5" y2="351" gradientUnits="userSpaceOnUse">
<stop offset="0.172601" stop-color="#2E8D99" stop-opacity="0"/>
<stop offset="0.507028" stop-color="white"/>
<stop offset="0.868043" stop-color="#2E3699" stop-opacity="0"/>
</linearGradient>
<linearGradient id="paint2_linear_2501_233" x1="169.5" y1="330" x2="169.5" y2="521" gradientUnits="userSpaceOnUse">
<stop offset="0.172601" stop-color="#2E8D99" stop-opacity="0"/>
<stop offset="0.507028" stop-color="#00B5FF"/>
<stop offset="0.868043" stop-color="#2E3699" stop-opacity="0"/>
</linearGradient>
<linearGradient id="paint3_linear_2501_233" x1="137.091" y1="346.776" x2="52.4908" y2="695.431" gradientUnits="userSpaceOnUse">
<stop stop-color="#00CDC2"/>
<stop offset="1" stop-color="#0D1A8C" stop-opacity="0"/>
</linearGradient>
<linearGradient id="paint4_linear_2501_233" x1="316.829" y1="388.769" x2="235.882" y2="595.493" gradientUnits="userSpaceOnUse">
<stop stop-color="#009B90"/>
<stop offset="1" stop-color="#16134E" stop-opacity="0"/>
</linearGradient>
<linearGradient id="paint5_linear_2501_233" x1="295.229" y1="340.764" x2="228.063" y2="425.588" gradientUnits="userSpaceOnUse">
<stop stop-color="white"/>
<stop offset="1" stop-color="#87D7FD"/>
</linearGradient>
<linearGradient id="paint6_linear_2501_233" x1="159.5" y1="0" x2="159.5" y2="191" gradientUnits="userSpaceOnUse">
<stop offset="0.172601" stop-color="#2E8D99" stop-opacity="0"/>
<stop offset="0.507028" stop-color="#00B5FF"/>
<stop offset="0.868043" stop-color="#2E3699" stop-opacity="0"/>
</linearGradient>
<linearGradient id="paint7_linear_2501_233" x1="0.5" y1="300" x2="0.5" y2="491" gradientUnits="userSpaceOnUse">
<stop offset="0.172601" stop-color="#2E8D99" stop-opacity="0"/>
<stop offset="0.507028" stop-color="#00B5FF"/>
<stop offset="0.868043" stop-color="#2E3699" stop-opacity="0"/>
</linearGradient>
<linearGradient id="paint8_linear_2501_233" x1="20.5" y1="120" x2="20.5" y2="311" gradientUnits="userSpaceOnUse">
<stop offset="0.172601" stop-color="#2E8D99" stop-opacity="0"/>
<stop offset="0.507028" stop-color="#00B5FF"/>
<stop offset="0.868043" stop-color="#2E3699" stop-opacity="0"/>
</linearGradient>
<linearGradient id="paint9_linear_2501_233" x1="205.094" y1="118.466" x2="190.548" y2="142.69" gradientUnits="userSpaceOnUse">
<stop stop-color="#01B1FB"/>
<stop offset="1" stop-color="#01B1FB" stop-opacity="0"/>
</linearGradient>
<linearGradient id="paint10_linear_2501_233" x1="150.094" y1="208.466" x2="141.609" y2="222.597" gradientUnits="userSpaceOnUse">
<stop stop-color="#01B1FB"/>
<stop offset="1" stop-color="#01B1FB" stop-opacity="0"/>
</linearGradient>
</defs>
</svg>
