<svg width="220" height="305" viewBox="0 0 220 305" fill="none" xmlns="http://www.w3.org/2000/svg">
<path d="M0 400.681V42.2656L113.333 80.3608V400.681H0Z" fill="url(#paint0_linear_2510_487)"/>
<path d="M220 400.682V40.3613L113.333 80.3613V400.682H220Z" fill="url(#paint1_linear_2510_487)"/>
<path d="M107.568 4.99363L219.483 40.8704L113.293 80.3943L0.435584 42.5172L107.568 4.99363Z" fill="url(#paint2_linear_2510_487)"/>
<g filter="url(#filter0_b_2510_487)">
<circle cx="104" cy="125" r="41" fill="white" fill-opacity="0.1"/>
</g>
<path d="M107.464 136.256C104.904 136.256 102.813 135.627 101.192 134.368C99.5707 133.088 98.4507 131.275 97.832 128.928H94.408L94.92 125.952H97.448C97.4267 125.525 97.416 125.099 97.416 124.672C97.416 124.245 97.448 123.829 97.512 123.424H94.504L95.016 120.448H97.928C98.568 118.101 99.6773 116.299 101.256 115.04C102.856 113.781 104.893 113.152 107.368 113.152C108.819 113.152 110.077 113.365 111.144 113.792C112.211 114.197 113.192 114.848 114.088 115.744L112.168 118.368C111.421 117.728 110.685 117.248 109.96 116.928C109.235 116.608 108.36 116.448 107.336 116.448C105.971 116.448 104.797 116.8 103.816 117.504C102.856 118.187 102.184 119.168 101.8 120.448H110.248L109.736 123.424H101.16C101.117 123.829 101.096 124.256 101.096 124.704C101.096 125.131 101.117 125.547 101.16 125.952H109.256L108.744 128.928H101.8C102.12 130.208 102.803 131.211 103.848 131.936C104.893 132.64 106.12 132.992 107.528 132.992C108.552 132.992 109.437 132.853 110.184 132.576C110.931 132.277 111.677 131.776 112.424 131.072C112.744 131.499 113.053 131.915 113.352 132.32C113.672 132.725 113.981 133.141 114.28 133.568C113.427 134.464 112.435 135.136 111.304 135.584C110.173 136.032 108.893 136.256 107.464 136.256Z" fill="white"/>
<defs>
<filter id="filter0_b_2510_487" x="19" y="40" width="170" height="170" filterUnits="userSpaceOnUse" color-interpolation-filters="sRGB">
<feFlood flood-opacity="0" result="BackgroundImageFix"/>
<feGaussianBlur in="BackgroundImageFix" stdDeviation="22"/>
<feComposite in2="SourceAlpha" operator="in" result="effect1_backgroundBlur_2510_487"/>
<feBlend mode="normal" in="SourceGraphic" in2="effect1_backgroundBlur_2510_487" result="shape"/>
</filter>
<linearGradient id="paint0_linear_2510_487" x1="20" y1="36.0146" x2="-79" y2="444.015" gradientUnits="userSpaceOnUse">
<stop stop-color="#00CDC2"/>
<stop offset="1" stop-color="#0D1A8C" stop-opacity="0"/>
</linearGradient>
<linearGradient id="paint1_linear_2510_487" x1="230.331" y1="85.1557" x2="135.607" y2="327.066" gradientUnits="userSpaceOnUse">
<stop stop-color="#009B90"/>
<stop offset="1" stop-color="#16134E" stop-opacity="0"/>
</linearGradient>
<linearGradient id="paint2_linear_2510_487" x1="205.055" y1="28.979" x2="126.456" y2="128.241" gradientUnits="userSpaceOnUse">
<stop stop-color="white"/>
<stop offset="1" stop-color="#87D7FD"/>
</linearGradient>
</defs>
</svg>
