<svg width="131" height="70" viewBox="0 0 131 70" fill="none" xmlns="http://www.w3.org/2000/svg">
<ellipse cx="71.5" cy="26" rx="37.5" ry="14" fill="#00CDC2"/>
<g filter="url(#filter0_b_2513_143)">
<path d="M1 12.006V68.0248C1.43927 69.791 2.64727 68.7607 3.19636 68.0248C7.1498 57.4283 12.7139 54.411 15.0018 54.2269H115.443C127.084 53.3438 129.994 46.6841 129.994 43.4646V19.1807C130.214 6.37637 124.046 1.88763 120.934 1.24379C95.5847 1.05982 22.5792 0.802263 13.3545 1.24379C4.12981 1.68532 1.27454 8.60258 1 12.006Z" fill="#00CDC2" fill-opacity="0.1"/>
<path d="M1 12.006V68.0248C1.43927 69.791 2.64727 68.7607 3.19636 68.0248C7.1498 57.4283 12.7139 54.411 15.0018 54.2269H115.443C127.084 53.3438 129.994 46.6841 129.994 43.4646V19.1807C130.214 6.37637 124.046 1.88763 120.934 1.24379C95.5847 1.05982 22.5792 0.802263 13.3545 1.24379C4.12981 1.68532 1.27454 8.60258 1 12.006Z" stroke="url(#paint0_linear_2513_143)"/>
</g>
<path d="M35.606 24.418C35.3913 24.418 35.172 24.4367 34.948 24.474C34.724 24.5113 34.5187 24.5813 34.332 24.684C34.1453 24.7773 33.9913 24.9127 33.87 25.09C33.7487 25.258 33.688 25.4727 33.688 25.734C33.688 26.126 33.8187 26.4247 34.08 26.63C34.3413 26.826 34.654 26.9753 35.018 27.078C35.2793 27.1527 35.5407 27.2227 35.802 27.288C36.0727 27.3533 36.32 27.4093 36.544 27.456C36.936 27.54 37.3047 27.6427 37.65 27.764C38.0047 27.8853 38.3127 28.0487 38.574 28.254C38.8353 28.45 39.0407 28.702 39.19 29.01C39.3487 29.3087 39.428 29.682 39.428 30.13C39.428 30.662 39.33 31.1147 39.134 31.488C38.9473 31.8613 38.6907 32.1693 38.364 32.412C38.0373 32.6547 37.6547 32.832 37.216 32.944C36.7773 33.056 36.306 33.112 35.802 33.112C35.2887 33.112 34.7987 33.0607 34.332 32.958C33.8747 32.846 33.464 32.6733 33.1 32.44C32.736 32.1973 32.4327 31.8893 32.19 31.516C31.9473 31.1427 31.7933 30.6947 31.728 30.172H33.408C33.4827 30.452 33.604 30.6853 33.772 30.872C33.94 31.0587 34.1313 31.208 34.346 31.32C34.57 31.432 34.808 31.5113 35.06 31.558C35.312 31.6047 35.5593 31.628 35.802 31.628C36.0633 31.628 36.3153 31.6093 36.558 31.572C36.8007 31.5253 37.0107 31.4507 37.188 31.348C37.3653 31.2453 37.51 31.11 37.622 30.942C37.734 30.774 37.79 30.5547 37.79 30.284C37.79 29.9107 37.692 29.64 37.496 29.472C37.3 29.2947 37.0387 29.164 36.712 29.08C36.264 28.9493 35.802 28.8373 35.326 28.744C34.8593 28.6413 34.416 28.5107 33.996 28.352C33.716 28.2493 33.4593 28.128 33.226 27.988C32.9927 27.848 32.7873 27.68 32.61 27.484C32.4327 27.288 32.2927 27.0593 32.19 26.798C32.0967 26.5273 32.05 26.2147 32.05 25.86C32.05 25.3187 32.1527 24.866 32.358 24.502C32.5633 24.1287 32.8293 23.83 33.156 23.606C33.492 23.382 33.87 23.2233 34.29 23.13C34.71 23.0273 35.1393 22.976 35.578 22.976C36.0447 22.976 36.488 23.032 36.908 23.144C37.328 23.2467 37.7013 23.41 38.028 23.634C38.3547 23.858 38.616 24.1473 38.812 24.502C39.0173 24.8567 39.1387 25.286 39.176 25.79H37.58C37.5427 25.538 37.4633 25.328 37.342 25.16C37.23 24.992 37.0853 24.8567 36.908 24.754C36.74 24.642 36.544 24.5627 36.32 24.516C36.096 24.46 35.858 24.4273 35.606 24.418ZM41.9518 22.556C42.2412 22.556 42.4792 22.6447 42.6658 22.822C42.8618 22.9993 42.9598 23.242 42.9598 23.55C42.9598 23.8487 42.8618 24.0867 42.6658 24.264C42.4792 24.4413 42.2412 24.53 41.9518 24.53C41.6438 24.53 41.3965 24.4413 41.2098 24.264C41.0232 24.0867 40.9298 23.8487 40.9298 23.55C40.9298 23.242 41.0232 22.9993 41.2098 22.822C41.3965 22.6447 41.6438 22.556 41.9518 22.556ZM41.1398 33V25.622H42.7358V33H41.1398ZM44.5828 33V25.622H46.1088L46.1928 26.644C46.4635 26.2613 46.7995 25.9767 47.2008 25.79C47.6115 25.594 48.0455 25.496 48.5028 25.496C49.0255 25.496 49.4642 25.5847 49.8188 25.762C50.1828 25.9393 50.4768 26.182 50.7008 26.49C50.9342 26.798 51.0975 27.162 51.1908 27.582C51.2935 28.002 51.3448 28.4593 51.3448 28.954V33H49.7488V29.192C49.7488 28.8747 49.7255 28.5807 49.6788 28.31C49.6415 28.0393 49.5622 27.8013 49.4408 27.596C49.3195 27.3813 49.1468 27.2133 48.9228 27.092C48.7082 26.9707 48.4282 26.91 48.0828 26.91C47.7562 26.91 47.4575 26.9893 47.1868 27.148C46.9255 27.3067 46.7202 27.512 46.5708 27.764C46.4308 28.016 46.3282 28.296 46.2628 28.604C46.2068 28.912 46.1788 29.206 46.1788 29.486V33H44.5828ZM60.0321 31.698C60.0134 32.1087 60.0041 32.5193 60.0041 32.93C60.0041 33.3407 59.9481 33.756 59.8361 34.176C59.6121 34.9693 59.2061 35.562 58.6181 35.954C58.0301 36.346 57.2974 36.542 56.4201 36.542C56.0094 36.542 55.6174 36.4953 55.2441 36.402C54.8801 36.3087 54.5487 36.164 54.2501 35.968C53.9607 35.772 53.7134 35.52 53.5081 35.212C53.3027 34.9133 53.1674 34.5493 53.1021 34.12H54.7681C54.8427 34.456 55.0387 34.708 55.3561 34.876C55.6827 35.044 56.0421 35.128 56.4341 35.128C56.8821 35.128 57.2367 35.044 57.4981 34.876C57.7687 34.7173 57.9741 34.4933 58.1141 34.204C58.2541 33.924 58.3427 33.5973 58.3801 33.224C58.4174 32.86 58.4361 32.4727 58.4361 32.062C58.2027 32.426 57.8994 32.692 57.5261 32.86C57.1621 33.028 56.7047 33.1167 56.1541 33.126C55.5194 33.1167 54.9921 33.014 54.5721 32.818C54.1614 32.6127 53.8207 32.3373 53.5501 31.992C53.2794 31.6467 53.0787 31.25 52.9481 30.802C52.8174 30.354 52.7521 29.878 52.7521 29.374C52.7521 28.814 52.8221 28.3007 52.9621 27.834C53.1114 27.3673 53.3307 26.9613 53.6201 26.616C53.9094 26.2707 54.2687 26 54.6981 25.804C55.1274 25.608 55.6267 25.51 56.1961 25.51C56.6814 25.51 57.1107 25.594 57.4841 25.762C57.8667 25.9207 58.1981 26.168 58.4781 26.504L58.6041 25.622H60.0321V31.698ZM56.3641 26.952C56.0094 26.952 55.7014 27.0127 55.4401 27.134C55.1881 27.2553 54.9781 27.4233 54.8101 27.638C54.6514 27.8527 54.5301 28.1093 54.4461 28.408C54.3714 28.6973 54.3341 29.01 54.3341 29.346C54.3341 29.682 54.3714 29.9947 54.4461 30.284C54.5301 30.564 54.6561 30.8113 54.8241 31.026C54.9921 31.2407 55.2021 31.4133 55.4541 31.544C55.7154 31.6653 56.0234 31.726 56.3781 31.726C56.7421 31.726 57.0501 31.656 57.3021 31.516C57.5634 31.376 57.7781 31.194 57.9461 30.97C58.1141 30.7367 58.2401 30.4753 58.3241 30.186C58.4081 29.8967 58.4501 29.598 58.4501 29.29C58.4501 28.9727 58.4081 28.6693 58.3241 28.38C58.2401 28.0907 58.1094 27.8433 57.9321 27.638C57.7641 27.4233 57.5494 27.2553 57.2881 27.134C57.0267 27.0127 56.7187 26.952 56.3641 26.952ZM66.5284 32.09C66.2857 32.4353 65.9637 32.692 65.5624 32.86C65.1611 33.0187 64.7131 33.098 64.2184 33.098C63.8264 33.098 63.4671 33.0513 63.1404 32.958C62.8231 32.8647 62.5431 32.7247 62.3004 32.538C62.0577 32.342 61.8664 32.104 61.7264 31.824C61.5864 31.5347 61.5164 31.208 61.5164 30.844C61.5164 30.4427 61.5957 30.102 61.7544 29.822C61.9131 29.5327 62.1277 29.2993 62.3984 29.122C62.6784 28.9447 63.0051 28.814 63.3784 28.73C63.7517 28.6367 64.1437 28.59 64.5544 28.59H66.4444C66.4444 28.0487 66.3231 27.6287 66.0804 27.33C65.8377 27.0313 65.4131 26.8773 64.8064 26.868C64.4517 26.868 64.1437 26.9287 63.8824 27.05C63.6304 27.1713 63.4624 27.372 63.3784 27.652H61.7404C61.7964 27.26 61.9224 26.9287 62.1184 26.658C62.3237 26.3873 62.5664 26.1633 62.8464 25.986C63.1357 25.8087 63.4531 25.6827 63.7984 25.608C64.1531 25.5333 64.5077 25.496 64.8624 25.496C65.3197 25.496 65.7444 25.5567 66.1364 25.678C66.5284 25.7993 66.8691 26.0047 67.1584 26.294C67.4851 26.63 67.7044 27.0313 67.8164 27.498C67.9284 27.9647 67.9844 28.4733 67.9844 29.024V33H66.5984L66.5284 32.09ZM66.4444 29.724H64.9044C64.6337 29.724 64.3631 29.7473 64.0924 29.794C63.8217 29.8313 63.5884 29.9293 63.3924 30.088C63.2057 30.2373 63.1124 30.4567 63.1124 30.746C63.1124 31.1007 63.2384 31.3713 63.4904 31.558C63.7517 31.7353 64.0691 31.824 64.4424 31.824C64.7317 31.824 64.9977 31.7867 65.2404 31.712C65.4924 31.6373 65.7071 31.516 65.8844 31.348C66.0617 31.1707 66.1971 30.9513 66.2904 30.69C66.3931 30.4193 66.4444 30.0973 66.4444 29.724ZM69.6981 35.87V25.622H71.2101L71.2941 26.672C71.5834 26.28 71.9381 25.986 72.3581 25.79C72.7781 25.594 73.2307 25.496 73.7161 25.496C74.2201 25.496 74.6727 25.5893 75.0741 25.776C75.4754 25.9533 75.8161 26.2053 76.0961 26.532C76.3854 26.8587 76.6001 27.2553 76.7401 27.722C76.8894 28.1793 76.9641 28.702 76.9641 29.29C76.9641 29.8407 76.8941 30.3493 76.7541 30.816C76.6141 31.2827 76.4041 31.6887 76.1241 32.034C75.8534 32.37 75.5127 32.6313 75.1021 32.818C74.7007 33.0047 74.2294 33.098 73.6881 33.098C73.2214 33.098 72.7781 33.028 72.3581 32.888C71.9474 32.7387 71.5927 32.51 71.2941 32.202V35.87H69.6981ZM73.3801 31.712C73.7254 31.712 74.0241 31.6513 74.2761 31.53C74.5281 31.3993 74.7334 31.2267 74.8921 31.012C75.0601 30.7973 75.1814 30.5453 75.2561 30.256C75.3401 29.9667 75.3821 29.654 75.3821 29.318C75.3821 28.982 75.3401 28.6693 75.2561 28.38C75.1814 28.0813 75.0601 27.8247 74.8921 27.61C74.7334 27.3953 74.5234 27.2273 74.2621 27.106C74.0101 26.9847 73.7067 26.924 73.3521 26.924C73.0067 26.924 72.7081 26.9893 72.4561 27.12C72.2041 27.2507 71.9894 27.4233 71.8121 27.638C71.6347 27.8527 71.4994 28.1093 71.4061 28.408C71.3221 28.6973 71.2801 28.996 71.2801 29.304C71.2801 29.9853 71.4574 30.5547 71.8121 31.012C72.1667 31.4693 72.6894 31.7027 73.3801 31.712ZM81.7387 25.496C82.3267 25.496 82.8447 25.5893 83.2927 25.776C83.7407 25.9627 84.1187 26.224 84.4267 26.56C84.7441 26.8867 84.9821 27.2833 85.1407 27.75C85.2994 28.2167 85.3787 28.7347 85.3787 29.304C85.3787 29.8827 85.2994 30.4053 85.1407 30.872C84.9914 31.3293 84.7627 31.726 84.4547 32.062C84.1467 32.398 83.7641 32.6547 83.3067 32.832C82.8587 33.0093 82.3361 33.098 81.7387 33.098C81.1507 33.098 80.6327 33.0093 80.1847 32.832C79.7367 32.6453 79.3587 32.3887 79.0507 32.062C78.7521 31.726 78.5234 31.3247 78.3647 30.858C78.2154 30.3913 78.1407 29.8733 78.1407 29.304C78.1407 28.7347 78.2154 28.2167 78.3647 27.75C78.5234 27.2833 78.7567 26.8867 79.0647 26.56C79.3727 26.224 79.7507 25.9627 80.1987 25.776C80.6467 25.5893 81.1601 25.496 81.7387 25.496ZM81.7387 31.712C82.1027 31.712 82.4107 31.6513 82.6627 31.53C82.9241 31.3993 83.1341 31.2267 83.2927 31.012C83.4607 30.7973 83.5821 30.5453 83.6567 30.256C83.7407 29.9667 83.7827 29.654 83.7827 29.318C83.7827 28.982 83.7407 28.6693 83.6567 28.38C83.5821 28.0813 83.4607 27.8247 83.2927 27.61C83.1341 27.3953 82.9241 27.2273 82.6627 27.106C82.4107 26.9847 82.1027 26.924 81.7387 26.924C81.3841 26.924 81.0807 26.9847 80.8287 27.106C80.5767 27.2273 80.3667 27.3953 80.1987 27.61C80.0307 27.8247 79.9047 28.0813 79.8207 28.38C79.7461 28.6693 79.7087 28.982 79.7087 29.318C79.7087 29.654 79.7461 29.9667 79.8207 30.256C79.9047 30.5453 80.0261 30.7973 80.1847 31.012C80.3527 31.2267 80.5627 31.3993 80.8147 31.53C81.0761 31.6513 81.3841 31.712 81.7387 31.712ZM86.8289 33V25.622H88.3269L88.4109 26.672C88.9803 25.888 89.7549 25.496 90.7349 25.496C90.8283 25.496 90.9169 25.5007 91.0009 25.51C91.0943 25.51 91.1783 25.5147 91.2529 25.524V27.008C91.1409 27.008 91.0289 27.0127 90.9169 27.022C90.8143 27.022 90.7116 27.022 90.6089 27.022C90.1983 27.0313 89.8529 27.106 89.5729 27.246C89.3023 27.3767 89.0783 27.554 88.9009 27.778C88.7329 28.002 88.6116 28.268 88.5369 28.576C88.4623 28.8747 88.4249 29.1967 88.4249 29.542V33H86.8289ZM93.4633 29.85C93.482 30.1207 93.538 30.3727 93.6313 30.606C93.7246 30.8393 93.8506 31.0447 94.0093 31.222C94.1773 31.39 94.378 31.5253 94.6113 31.628C94.854 31.7307 95.134 31.782 95.4513 31.782C95.7873 31.782 96.0953 31.7213 96.3753 31.6C96.6553 31.4787 96.8606 31.2687 96.9913 30.97H98.6293C98.536 31.3433 98.382 31.6653 98.1673 31.936C97.962 32.2067 97.7146 32.4307 97.4253 32.608C97.1453 32.776 96.8326 32.902 96.4873 32.986C96.1513 33.0607 95.792 33.098 95.4093 33.098C94.8213 33.098 94.3033 33.0093 93.8553 32.832C93.4166 32.6547 93.048 32.398 92.7493 32.062C92.4506 31.726 92.2266 31.3293 92.0773 30.872C91.9373 30.4053 91.8673 29.8827 91.8673 29.304C91.8673 28.744 91.9466 28.2353 92.1053 27.778C92.264 27.3113 92.4926 26.91 92.7913 26.574C93.0993 26.238 93.468 25.9767 93.8973 25.79C94.3266 25.594 94.8166 25.496 95.3673 25.496C95.946 25.496 96.4453 25.594 96.8653 25.79C97.2853 25.9767 97.6353 26.2333 97.9153 26.56C98.2046 26.8867 98.4193 27.2693 98.5593 27.708C98.6993 28.1467 98.7693 28.6227 98.7693 29.136C98.7693 29.3787 98.7553 29.6167 98.7273 29.85H93.4633ZM97.2153 28.646C97.1966 28.086 97.0193 27.652 96.6833 27.344C96.3473 27.036 95.9133 26.882 95.3813 26.882C95.0826 26.882 94.8213 26.9287 94.5973 27.022C94.3733 27.1153 94.182 27.2413 94.0233 27.4C93.874 27.5587 93.7526 27.7453 93.6593 27.96C93.566 28.1747 93.5053 28.4033 93.4773 28.646H97.2153Z" fill="white"/>
<defs>
<filter id="filter0_b_2513_143" x="-43.5" y="-43.5" width="218" height="157" filterUnits="userSpaceOnUse" color-interpolation-filters="sRGB">
<feFlood flood-opacity="0" result="BackgroundImageFix"/>
<feGaussianBlur in="BackgroundImageFix" stdDeviation="22"/>
<feComposite in2="SourceAlpha" operator="in" result="effect1_backgroundBlur_2513_143"/>
<feBlend mode="normal" in="SourceGraphic" in2="effect1_backgroundBlur_2513_143" result="shape"/>
</filter>
<linearGradient id="paint0_linear_2513_143" x1="11.5" y1="8.5" x2="65.5" y2="69" gradientUnits="userSpaceOnUse">
<stop stop-color="#00CDC2"/>
<stop offset="1" stop-color="#00CDC2" stop-opacity="0"/>
</linearGradient>
</defs>
</svg>
