<svg width="131" height="70" viewBox="0 0 131 70" fill="none" xmlns="http://www.w3.org/2000/svg">
<ellipse cx="71.5" cy="26" rx="37.5" ry="14" fill="#00CDC2"/>
<g filter="url(#filter0_b_2513_142)">
<path d="M1 12.006V68.0248C1.43927 69.791 2.64727 68.7607 3.19636 68.0248C7.1498 57.4283 12.7139 54.411 15.0018 54.2269H115.443C127.084 53.3438 129.994 46.6841 129.994 43.4646V19.1807C130.214 6.37637 124.046 1.88763 120.934 1.24379C95.5847 1.05982 22.5792 0.802263 13.3545 1.24379C4.12981 1.68532 1.27454 8.60258 1 12.006Z" fill="#00CDC2" fill-opacity="0.1"/>
<path d="M1 12.006V68.0248C1.43927 69.791 2.64727 68.7607 3.19636 68.0248C7.1498 57.4283 12.7139 54.411 15.0018 54.2269H115.443C127.084 53.3438 129.994 46.6841 129.994 43.4646V19.1807C130.214 6.37637 124.046 1.88763 120.934 1.24379C95.5847 1.05982 22.5792 0.802263 13.3545 1.24379C4.12981 1.68532 1.27454 8.60258 1 12.006Z" stroke="url(#paint0_linear_2513_142)"/>
</g>
<path d="M47.606 24.418C47.3913 24.418 47.172 24.4367 46.948 24.474C46.724 24.5113 46.5187 24.5813 46.332 24.684C46.1453 24.7773 45.9913 24.9127 45.87 25.09C45.7487 25.258 45.688 25.4727 45.688 25.734C45.688 26.126 45.8187 26.4247 46.08 26.63C46.3413 26.826 46.654 26.9753 47.018 27.078C47.2793 27.1527 47.5407 27.2227 47.802 27.288C48.0727 27.3533 48.32 27.4093 48.544 27.456C48.936 27.54 49.3047 27.6427 49.65 27.764C50.0047 27.8853 50.3127 28.0487 50.574 28.254C50.8353 28.45 51.0407 28.702 51.19 29.01C51.3487 29.3087 51.428 29.682 51.428 30.13C51.428 30.662 51.33 31.1147 51.134 31.488C50.9473 31.8613 50.6907 32.1693 50.364 32.412C50.0373 32.6547 49.6547 32.832 49.216 32.944C48.7773 33.056 48.306 33.112 47.802 33.112C47.2887 33.112 46.7987 33.0607 46.332 32.958C45.8747 32.846 45.464 32.6733 45.1 32.44C44.736 32.1973 44.4327 31.8893 44.19 31.516C43.9473 31.1427 43.7933 30.6947 43.728 30.172H45.408C45.4827 30.452 45.604 30.6853 45.772 30.872C45.94 31.0587 46.1313 31.208 46.346 31.32C46.57 31.432 46.808 31.5113 47.06 31.558C47.312 31.6047 47.5593 31.628 47.802 31.628C48.0633 31.628 48.3153 31.6093 48.558 31.572C48.8007 31.5253 49.0107 31.4507 49.188 31.348C49.3653 31.2453 49.51 31.11 49.622 30.942C49.734 30.774 49.79 30.5547 49.79 30.284C49.79 29.9107 49.692 29.64 49.496 29.472C49.3 29.2947 49.0387 29.164 48.712 29.08C48.264 28.9493 47.802 28.8373 47.326 28.744C46.8593 28.6413 46.416 28.5107 45.996 28.352C45.716 28.2493 45.4593 28.128 45.226 27.988C44.9927 27.848 44.7873 27.68 44.61 27.484C44.4327 27.288 44.2927 27.0593 44.19 26.798C44.0967 26.5273 44.05 26.2147 44.05 25.86C44.05 25.3187 44.1527 24.866 44.358 24.502C44.5633 24.1287 44.8293 23.83 45.156 23.606C45.492 23.382 45.87 23.2233 46.29 23.13C46.71 23.0273 47.1393 22.976 47.578 22.976C48.0447 22.976 48.488 23.032 48.908 23.144C49.328 23.2467 49.7013 23.41 50.028 23.634C50.3547 23.858 50.616 24.1473 50.812 24.502C51.0173 24.8567 51.1387 25.286 51.176 25.79H49.58C49.5427 25.538 49.4633 25.328 49.342 25.16C49.23 24.992 49.0853 24.8567 48.908 24.754C48.74 24.642 48.544 24.5627 48.32 24.516C48.096 24.46 47.858 24.4273 47.606 24.418ZM56.3598 25.496C56.9478 25.496 57.4658 25.5893 57.9138 25.776C58.3618 25.9627 58.7398 26.224 59.0478 26.56C59.3652 26.8867 59.6032 27.2833 59.7618 27.75C59.9205 28.2167 59.9998 28.7347 59.9998 29.304C59.9998 29.8827 59.9205 30.4053 59.7618 30.872C59.6125 31.3293 59.3838 31.726 59.0758 32.062C58.7678 32.398 58.3852 32.6547 57.9278 32.832C57.4798 33.0093 56.9572 33.098 56.3598 33.098C55.7718 33.098 55.2538 33.0093 54.8058 32.832C54.3578 32.6453 53.9798 32.3887 53.6718 32.062C53.3732 31.726 53.1445 31.3247 52.9858 30.858C52.8365 30.3913 52.7618 29.8733 52.7618 29.304C52.7618 28.7347 52.8365 28.2167 52.9858 27.75C53.1445 27.2833 53.3778 26.8867 53.6858 26.56C53.9938 26.224 54.3718 25.9627 54.8198 25.776C55.2678 25.5893 55.7812 25.496 56.3598 25.496ZM56.3598 31.712C56.7238 31.712 57.0318 31.6513 57.2838 31.53C57.5452 31.3993 57.7552 31.2267 57.9138 31.012C58.0818 30.7973 58.2032 30.5453 58.2778 30.256C58.3618 29.9667 58.4038 29.654 58.4038 29.318C58.4038 28.982 58.3618 28.6693 58.2778 28.38C58.2032 28.0813 58.0818 27.8247 57.9138 27.61C57.7552 27.3953 57.5452 27.2273 57.2838 27.106C57.0318 26.9847 56.7238 26.924 56.3598 26.924C56.0052 26.924 55.7018 26.9847 55.4498 27.106C55.1978 27.2273 54.9878 27.3953 54.8198 27.61C54.6518 27.8247 54.5258 28.0813 54.4418 28.38C54.3672 28.6693 54.3298 28.982 54.3298 29.318C54.3298 29.654 54.3672 29.9667 54.4418 30.256C54.5258 30.5453 54.6472 30.7973 54.8058 31.012C54.9738 31.2267 55.1838 31.3993 55.4358 31.53C55.6972 31.6513 56.0052 31.712 56.3598 31.712ZM64.768 25.496C65.356 25.496 65.874 25.5893 66.322 25.776C66.77 25.9627 67.148 26.224 67.456 26.56C67.7734 26.8867 68.0114 27.2833 68.17 27.75C68.3287 28.2167 68.408 28.7347 68.408 29.304C68.408 29.8827 68.3287 30.4053 68.17 30.872C68.0207 31.3293 67.792 31.726 67.484 32.062C67.176 32.398 66.7934 32.6547 66.336 32.832C65.888 33.0093 65.3654 33.098 64.768 33.098C64.18 33.098 63.662 33.0093 63.214 32.832C62.766 32.6453 62.388 32.3887 62.08 32.062C61.7814 31.726 61.5527 31.3247 61.394 30.858C61.2447 30.3913 61.17 29.8733 61.17 29.304C61.17 28.7347 61.2447 28.2167 61.394 27.75C61.5527 27.2833 61.786 26.8867 62.094 26.56C62.402 26.224 62.78 25.9627 63.228 25.776C63.676 25.5893 64.1894 25.496 64.768 25.496ZM64.768 31.712C65.132 31.712 65.44 31.6513 65.692 31.53C65.9534 31.3993 66.1634 31.2267 66.322 31.012C66.49 30.7973 66.6114 30.5453 66.686 30.256C66.77 29.9667 66.812 29.654 66.812 29.318C66.812 28.982 66.77 28.6693 66.686 28.38C66.6114 28.0813 66.49 27.8247 66.322 27.61C66.1634 27.3953 65.9534 27.2273 65.692 27.106C65.44 26.9847 65.132 26.924 64.768 26.924C64.4134 26.924 64.11 26.9847 63.858 27.106C63.606 27.2273 63.396 27.3953 63.228 27.61C63.06 27.8247 62.934 28.0813 62.85 28.38C62.7754 28.6693 62.738 28.982 62.738 29.318C62.738 29.654 62.7754 29.9667 62.85 30.256C62.934 30.5453 63.0554 30.7973 63.214 31.012C63.382 31.2267 63.592 31.3993 63.844 31.53C64.1054 31.6513 64.4134 31.712 64.768 31.712ZM69.8582 33V25.622H71.3842L71.4682 26.644C71.7389 26.2613 72.0749 25.9767 72.4762 25.79C72.8869 25.594 73.3209 25.496 73.7782 25.496C74.3009 25.496 74.7396 25.5847 75.0942 25.762C75.4582 25.9393 75.7522 26.182 75.9762 26.49C76.2096 26.798 76.3729 27.162 76.4662 27.582C76.5689 28.002 76.6202 28.4593 76.6202 28.954V33H75.0242V29.192C75.0242 28.8747 75.0009 28.5807 74.9542 28.31C74.9169 28.0393 74.8376 27.8013 74.7162 27.596C74.5949 27.3813 74.4222 27.218 74.1982 27.106C73.9836 26.9847 73.7036 26.924 73.3582 26.924C73.0316 26.924 72.7329 27.0033 72.4622 27.162C72.2009 27.3113 71.9956 27.512 71.8462 27.764C71.7062 28.016 71.6036 28.296 71.5382 28.604C71.4822 28.912 71.4542 29.206 71.4542 29.486V33H69.8582ZM79.3295 31.054C79.6281 31.054 79.8708 31.1473 80.0575 31.334C80.2535 31.5207 80.3515 31.7727 80.3515 32.09C80.3515 32.4167 80.2535 32.6687 80.0575 32.846C79.8708 33.0233 79.6281 33.112 79.3295 33.112C79.0308 33.112 78.7835 33.0233 78.5875 32.846C78.4008 32.6687 78.3075 32.4167 78.3075 32.09C78.3075 31.7727 78.4008 31.5207 78.5875 31.334C78.7835 31.1473 79.0308 31.054 79.3295 31.054ZM83.1029 31.054C83.4016 31.054 83.6442 31.1473 83.8309 31.334C84.0269 31.5207 84.1249 31.7727 84.1249 32.09C84.1249 32.4167 84.0269 32.6687 83.8309 32.846C83.6442 33.0233 83.4016 33.112 83.1029 33.112C82.8042 33.112 82.5569 33.0233 82.3609 32.846C82.1742 32.6687 82.0809 32.4167 82.0809 32.09C82.0809 31.7727 82.1742 31.5207 82.3609 31.334C82.5569 31.1473 82.8042 31.054 83.1029 31.054ZM86.8763 31.054C87.175 31.054 87.4177 31.1473 87.6043 31.334C87.8003 31.5207 87.8983 31.7727 87.8983 32.09C87.8983 32.4167 87.8003 32.6687 87.6043 32.846C87.4177 33.0233 87.175 33.112 86.8763 33.112C86.5777 33.112 86.3303 33.0233 86.1343 32.846C85.9477 32.6687 85.8543 32.4167 85.8543 32.09C85.8543 31.7727 85.9477 31.5207 86.1343 31.334C86.3303 31.1473 86.5777 31.054 86.8763 31.054Z" fill="white"/>
<defs>
<filter id="filter0_b_2513_142" x="-43.5" y="-43.5" width="218" height="157" filterUnits="userSpaceOnUse" color-interpolation-filters="sRGB">
<feFlood flood-opacity="0" result="BackgroundImageFix"/>
<feGaussianBlur in="BackgroundImageFix" stdDeviation="22"/>
<feComposite in2="SourceAlpha" operator="in" result="effect1_backgroundBlur_2513_142"/>
<feBlend mode="normal" in="SourceGraphic" in2="effect1_backgroundBlur_2513_142" result="shape"/>
</filter>
<linearGradient id="paint0_linear_2513_142" x1="11.5" y1="8.5" x2="65.5" y2="69" gradientUnits="userSpaceOnUse">
<stop stop-color="#00CDC2"/>
<stop offset="1" stop-color="#00CDC2" stop-opacity="0"/>
</linearGradient>
</defs>
</svg>
