<svg width="172" height="164" viewBox="0 0 172 164" fill="none" xmlns="http://www.w3.org/2000/svg">
<g id="Mask group">
<g id="Group 204">
<g id="Shadow">
<path id="&#60;Path&#62;" d="M102.101 163.274C140.705 163.274 172 156.845 172 148.916C172 140.986 140.705 134.557 102.101 134.557C63.497 134.557 32.2021 140.986 32.2021 148.916C32.2021 156.845 63.497 163.274 102.101 163.274Z" fill="#F5F5F5"/>
</g>
<g id="Question Marks">
<path id="Vector" d="M32.6793 44.1481L32.1294 43.9036C32.5717 42.9573 32.8605 41.9466 32.9849 40.9094H33.5959C33.4862 42.035 33.1758 43.1319 32.6793 44.1481ZM32.4349 37.182C31.882 35.9032 31.0049 34.7908 29.8904 33.9549C28.7758 33.119 27.4624 32.5884 26.0799 32.4157L26.2021 31.8046C27.6763 32.0116 29.0732 32.5918 30.2602 33.4901C31.4473 34.3884 32.3851 35.5751 32.9849 36.9375L32.4349 37.182Z" fill="#1AC4BB"/>
<path id="Vector_2" d="M29.2584 50.32L23.2089 53.0698L22.9644 52.4588C22.5456 51.6371 22.2766 50.7473 22.1701 49.8312C22.0967 49.0688 22.1798 48.2994 22.4145 47.5703C22.9508 46.1534 23.5627 44.7663 24.2477 43.4151C24.7976 42.3152 24.9198 41.4597 24.6754 40.9097C24.5679 40.6493 24.41 40.4126 24.2108 40.2134C24.0115 40.0141 23.7749 39.8562 23.5144 39.7487C22.913 39.6304 22.2893 39.7164 21.7423 39.9931C21.3938 40.1414 21.0788 40.3585 20.8163 40.6315C20.5538 40.9045 20.3491 41.2278 20.2147 41.5819C19.975 42.6008 20.0605 43.6693 20.4591 44.6372L13.9819 46.6537C13.1875 44.2705 13.1264 42.1318 13.9819 40.0542C14.8373 37.9766 16.6094 36.3879 19.6036 35.0435C21.5239 34.06 23.6955 33.6768 25.8364 33.9436C26.9616 34.0801 28.032 34.5067 28.9425 35.1816C29.8531 35.8565 30.5726 36.7565 31.0304 37.7933C31.4691 38.7046 31.6387 39.7221 31.5193 40.7264C31.2267 42.2962 30.6688 43.8048 29.8694 45.1871C29.3228 46.0876 28.9497 47.0824 28.7695 48.1202C28.7387 48.8835 28.9072 49.6416 29.2584 50.32ZM23.7588 54.7197L30.175 51.7866L32.8025 57.4695L26.3253 60.4025L23.7588 54.7197Z" fill="#06B0A7"/>
<path id="Vector_3" d="M14.3479 63.8856L11.2926 68.0408L10.926 67.7353C10.315 67.3428 9.77734 66.8465 9.33724 66.2688C9.01524 65.764 8.7875 65.205 8.66507 64.6189C8.47603 63.4454 8.35361 62.2621 8.29843 61.0748C8.33995 60.7378 8.30064 60.3958 8.18376 60.077C8.06687 59.7582 7.87577 59.4719 7.62627 59.2416C7.47029 59.1009 7.28591 58.9953 7.08561 58.9321C6.8853 58.8688 6.67374 58.8493 6.46525 58.8749C5.98059 58.9959 5.56331 59.3033 5.30424 59.7304C4.95189 60.2035 4.79839 60.7956 4.87649 61.3803C5.09546 62.1631 5.56835 62.8509 6.22083 63.3357L2.55447 67.1854C1.19315 66.0622 0.299793 64.4716 0.0491172 62.7246C-0.195307 61.0748 0.476863 59.1805 1.94341 57.164C2.90429 55.7803 4.2397 54.6993 5.79309 54.0476C6.61824 53.6978 7.52061 53.5701 8.41041 53.6773C9.30021 53.7845 10.1464 54.1229 10.8649 54.6586C11.4803 55.1416 11.9637 55.7721 12.2703 56.4918C12.64 57.6786 12.8254 58.9151 12.8203 60.1582C12.8227 60.9864 12.9462 61.8099 13.1869 62.6024C13.4852 63.1028 13.8798 63.539 14.3479 63.8856ZM12.3314 69.0185L15.5701 64.5578L19.4808 67.4298L16.2422 71.8905L12.3314 69.0185Z" fill="#1AC4BB"/>
</g>
<g id="Character">
<path id="Vector_4" d="M79.4251 145.095C78.9212 145.104 78.4248 144.971 77.9926 144.712C77.5605 144.453 77.2099 144.077 76.9809 143.628C74.0811 137.681 70.3351 132.186 65.8595 127.313C65.5549 126.956 65.3403 126.531 65.234 126.074C65.1277 125.616 65.1326 125.14 65.2485 124.685C67.3261 117.536 70.5647 107.759 70.6258 107.637C70.9053 107.018 71.4038 106.525 72.0253 106.252C72.6467 105.979 73.3472 105.945 73.992 106.157C74.6367 106.37 75.1801 106.813 75.5176 107.402C75.855 107.991 75.9627 108.684 75.8198 109.348C75.7587 109.47 73.009 117.903 70.9925 124.746C75.2867 129.73 78.9407 135.232 81.8693 141.123C82.1889 141.772 82.2397 142.521 82.011 143.207C81.7822 143.893 81.2922 144.462 80.6472 144.789C80.2798 145.011 79.8539 145.118 79.4251 145.095Z" fill="#1AC4BB"/>
<path id="Vector_5" d="M84.0085 147.356H62.7436L73.9871 140.94L83.4586 141.306L84.0085 147.356Z" fill="#263238"/>
<path id="Vector_6" d="M82.0761 121.393C91.7372 118.366 97.5319 109.411 95.019 101.392C92.5061 93.3737 82.6371 89.3276 72.976 92.3552C63.3149 95.3828 57.5202 104.338 60.0331 112.356C62.546 120.375 72.415 124.421 82.0761 121.393Z" fill="#263238"/>
<path id="Vector_7" d="M29.0742 97.0658C28.5262 97.0619 27.9913 96.8978 27.5353 96.5938C27.0793 96.2898 26.7222 95.8592 26.5077 95.3549C26.3681 95.0262 26.2953 94.6731 26.2936 94.3161C26.2919 93.959 26.3614 93.6052 26.4979 93.2753C26.6344 92.9453 26.8353 92.6459 27.0887 92.3945C27.3422 92.143 27.6433 91.9446 27.9743 91.8107C28.4453 91.6014 28.8582 91.2806 29.1776 90.8761C29.497 90.4715 29.7131 89.9954 29.8075 89.4887C29.8652 88.8901 30.1176 88.3269 30.5259 87.8855C30.9343 87.444 31.4761 87.1486 32.0684 87.0444L34.0849 86.4945C37.7513 85.4557 42.3953 84.1113 56.8774 88.1443C71.1763 80.1394 71.2985 65.1685 71.2985 64.4963C71.3144 63.7777 71.6112 63.0938 72.1251 62.5913C72.6391 62.0888 73.3294 61.8075 74.0482 61.8076C74.4064 61.7995 74.7626 61.863 75.0959 61.9945C75.4292 62.126 75.7329 62.3227 75.989 62.5732C76.2452 62.8237 76.4487 63.1228 76.5877 63.4531C76.7266 63.7833 76.7981 64.138 76.798 64.4963C76.798 65.2907 76.7369 84.1114 58.4662 93.5217C57.8386 93.8256 57.1218 93.8907 56.4497 93.705C42.6397 89.7331 38.7289 90.8941 35.6125 91.8107L34.7571 91.994C34.3636 93.0787 33.747 94.0688 32.9471 94.9003C32.1471 95.7318 31.1816 96.3863 30.113 96.8214C29.7904 96.9824 29.4347 97.0661 29.0742 97.0658Z" fill="#263238"/>
<path id="Vector_8" d="M61.0941 77.4506C55.9001 56.7968 42.0291 3.45123 86.392 0.212611C126.233 -2.72048 137.171 50.3196 139.86 68.6514C141.157 77.9264 141.871 87.2735 141.999 96.6379C142.049 101.388 140.442 106.008 137.452 109.7C134.463 113.392 130.279 115.926 125.622 116.864C103.929 121.264 83.3978 121.875 69.5879 116.436C67.7777 115.697 66.2536 114.395 65.2411 112.722C64.2287 111.049 63.7816 109.095 63.9661 107.148C64.455 101.16 64.455 90.9551 61.0941 77.4506Z" fill="#D9D9D9"/>
<path id="Vector_9" opacity="0.1" d="M139.858 68.6515C137.353 51.3585 127.454 3.26801 92.9902 0.273814C91.0206 0.0708678 89.0351 0.455881 87.2842 1.38028C85.5333 2.30468 84.0954 3.72703 83.1521 5.46783C81.6244 8.46202 81.6856 12.0673 84.0076 15.6114C91.5847 27.4049 109.733 68.1626 106.983 90.3441C105.7 100.427 99.4063 108.493 104.906 119.858C111.862 119.25 118.777 118.25 125.621 116.864C130.278 115.926 134.462 113.392 137.451 109.7C140.44 106.008 142.048 101.388 141.997 96.638C141.9 87.2723 141.186 77.9232 139.858 68.6515Z" fill="black"/>
<path id="Vector_10" d="M133.871 96.9437C133.801 96.9294 133.738 96.891 133.693 96.8352C133.648 96.7793 133.625 96.7096 133.626 96.6381C133.503 87.2939 132.788 77.9668 131.488 68.7127C124.888 23.0665 107.106 0.0295117 80.0974 1.9849C79.9141 2.04601 79.7918 1.9238 79.7918 1.74048C79.8053 1.67379 79.8346 1.61127 79.8771 1.55813C79.9196 1.505 79.9742 1.46277 80.0363 1.43495C107.412 -0.581545 125.377 22.6999 131.976 68.6516C133.331 77.9212 134.065 87.2708 134.176 96.6381C134.176 96.7192 134.144 96.7969 134.087 96.8542C134.029 96.9115 133.952 96.9437 133.871 96.9437Z" fill="#263238"/>
<path id="Vector_11" d="M133.563 122.848C143.224 119.821 149.019 110.866 146.506 102.847C143.993 94.8286 134.124 90.7825 124.463 93.8101C114.802 96.8377 109.007 105.793 111.52 113.811C114.033 121.83 123.902 125.876 133.563 122.848Z" fill="#263238"/>
<path id="Vector_12" d="M135.155 145.095C134.651 145.104 134.155 144.971 133.723 144.712C133.291 144.453 132.94 144.077 132.711 143.628C129.814 137.694 126.09 132.201 121.651 127.313C121.326 126.967 121.094 126.545 120.977 126.086C120.859 125.626 120.86 125.144 120.979 124.685C123.056 117.536 126.295 107.759 126.356 107.637C126.635 107.018 127.134 106.525 127.755 106.252C128.377 105.979 129.077 105.945 129.722 106.157C130.367 106.37 130.91 106.813 131.248 107.402C131.585 107.991 131.693 108.684 131.55 109.348C131.489 109.47 128.739 117.903 126.723 124.746C131.017 129.73 134.671 135.232 137.599 141.123C137.768 141.439 137.872 141.786 137.905 142.142C137.938 142.499 137.899 142.859 137.791 143.2C137.682 143.542 137.507 143.858 137.275 144.131C137.043 144.404 136.758 144.628 136.438 144.789C136.046 145.004 135.603 145.109 135.155 145.095Z" fill="#1AC4BB"/>
<path id="Vector_13" d="M129.411 61.5632C128.91 61.5588 128.419 61.4206 127.99 61.1627C127.56 60.9049 127.207 60.5368 126.967 60.0966C126.799 59.7806 126.695 59.4339 126.662 59.0772C126.629 58.7204 126.668 58.3607 126.776 58.0191C126.884 57.6775 127.06 57.361 127.292 57.0882C127.524 56.8153 127.808 56.5917 128.128 56.4303C132.159 53.9578 135.642 50.6878 138.363 46.8209C141.085 42.9541 142.988 38.5719 143.955 33.9432C135.95 30.5824 121.651 23.0664 118.535 19.3389C118.23 18.9737 118.039 18.5278 117.985 18.0557C117.582 15.8009 117.793 13.4792 118.596 11.334L117.129 8.52314C116.96 8.20706 116.857 7.86044 116.824 7.50366C116.791 7.14689 116.83 6.78715 116.938 6.44559C117.046 6.10402 117.221 5.78752 117.454 5.51468C117.686 5.24183 117.97 5.01816 118.29 4.85678C118.611 4.68681 118.962 4.58199 119.323 4.54839C119.685 4.51478 120.049 4.55306 120.396 4.66099C120.742 4.76892 121.064 4.94438 121.342 5.17725C121.621 5.41012 121.85 5.69579 122.018 6.01779L124.095 10.0508C124.301 10.4734 124.398 10.941 124.377 11.4107C124.356 11.8804 124.217 12.3373 123.973 12.7395C123.301 13.7783 123.24 15.3059 123.301 16.3447C126.784 19.5222 141.022 27.0383 147.988 29.6658C148.583 29.8841 149.085 30.3014 149.408 30.847C149.73 31.3927 149.855 32.0332 149.76 32.66C148.889 38.5382 146.728 44.1507 143.432 49.095C140.135 54.0393 135.786 58.1929 130.695 61.2577C130.292 61.4448 129.855 61.5487 129.411 61.5632Z" fill="#263238"/>
<path id="Vector_14" d="M120.672 18.9113C120.397 18.9151 120.124 18.8522 119.878 18.728C119.727 18.6295 119.598 18.5018 119.498 18.3524C119.397 18.203 119.328 18.035 119.294 17.8584C119.26 17.6817 119.261 17.5 119.299 17.324C119.336 17.148 119.408 16.9812 119.511 16.8337C119.572 16.6504 121.894 13.2284 125.316 12.3118C125.489 12.2661 125.669 12.2551 125.846 12.2797C126.022 12.3042 126.193 12.3637 126.346 12.4547C126.5 12.5457 126.634 12.6664 126.74 12.8098C126.847 12.9531 126.923 13.1162 126.966 13.2895C127.022 13.4619 127.043 13.6439 127.027 13.8246C127.011 14.0052 126.958 14.1807 126.873 14.3406C126.787 14.5004 126.67 14.6413 126.529 14.7547C126.387 14.8681 126.224 14.9517 126.05 15.0005C123.605 15.6116 121.833 18.3002 121.772 18.3002C121.661 18.4922 121.501 18.6505 121.307 18.7582C121.113 18.8658 120.894 18.9187 120.672 18.9113Z" fill="#263238"/>
<path id="Vector_15" d="M139.737 147.356H118.472L129.715 140.94L139.187 141.306L139.737 147.356Z" fill="#263238"/>
<path id="Vector_16" d="M95.2978 65.3196C103.332 64.6026 109.321 58.1627 108.676 50.9356C108.031 43.7085 100.996 38.4311 92.9621 39.1481C84.9282 39.8651 78.9384 46.305 79.5834 53.5321C80.2284 60.7592 87.264 66.0366 95.2978 65.3196Z" fill="white"/>
<path id="Vector_17" d="M92.4786 60.7017C94.6207 60.0915 95.4579 56.4394 94.3484 52.5446C93.2389 48.6498 90.603 45.9871 88.4608 46.5973C86.3187 47.2075 85.4816 50.8596 86.591 54.7544C87.7005 58.6492 90.3364 61.3119 92.4786 60.7017Z" fill="#263238"/>
<path id="Vector_18" d="M77.4107 54.8418C86.6377 53.6196 104.908 48.4256 107.903 46.348C105.52 39.3819 94.5204 33.4546 84.6212 36.7544C75.6998 39.8097 77.4107 54.8418 77.4107 54.8418Z" fill="#263238"/>
<path id="Vector_19" d="M79.1818 59.3023C90.6697 57.1025 105.518 53.4361 109.796 51.1141C109.551 58.569 107.352 66.1462 95.6804 68.7126C86.1479 70.7902 79.1818 59.3023 79.1818 59.3023Z" fill="#263238"/>
<path id="Vector_20" d="M69.8037 66.4651C73.9406 63.727 74.4856 57.264 71.021 52.0296C67.5565 46.7952 61.3943 44.7716 57.2574 47.5097C53.1206 50.2478 52.5756 56.7108 56.0401 61.9452C59.5047 67.1796 65.6669 69.2033 69.8037 66.4651Z" fill="white"/>
<path id="Vector_21" d="M63.6611 57.1634C64.3944 60.402 63.7833 63.1518 62.3168 63.274C60.8502 63.3962 59.2003 60.7687 58.4671 57.4689C57.7338 54.1692 58.406 51.4805 59.8114 51.4194C61.2168 51.3583 62.9889 53.8637 63.6611 57.1634Z" fill="#263238"/>
<path id="Vector_22" d="M52.2941 55.8803C58.5269 56.6136 70.8093 55.8192 72.8258 54.7193C71.3592 48.792 64.0265 42.0703 57.3659 42.9258C50.7054 43.7813 52.2941 55.8803 52.2941 55.8803Z" fill="#263238"/>
<path id="Vector_23" d="M53.4555 59.7302C61.1549 60.0968 71.1763 59.9135 74.0482 58.8136C73.8038 64.6798 72.2762 70.3015 64.3935 70.1793C57.9773 70.1182 53.4555 59.7302 53.4555 59.7302Z" fill="#263238"/>
<path id="Vector_24" d="M97.7577 33.0881C86.2086 33.0881 78.5092 27.4053 78.1426 27.0997C77.5819 26.6439 77.2183 25.9896 77.1273 25.2728C77.0363 24.5559 77.2248 23.8316 77.6538 23.2501C78.09 22.6841 78.7295 22.3102 79.4366 22.2075C80.1438 22.1049 80.8632 22.2815 81.4423 22.7001C87.9139 26.9403 95.7733 28.5165 103.379 27.0997C103.729 27.0288 104.089 27.028 104.438 27.0975C104.788 27.1669 105.12 27.3051 105.416 27.5041C105.711 27.7032 105.965 27.959 106.16 28.2567C106.356 28.5544 106.491 28.8882 106.557 29.2384C106.628 29.5958 106.627 29.9636 106.554 30.3205C106.482 30.6774 106.339 31.0164 106.134 31.3177C105.93 31.619 105.667 31.8767 105.362 32.0757C105.057 32.2747 104.715 32.4112 104.357 32.4771C102.18 32.8813 99.9715 33.0858 97.7577 33.0881Z" fill="#263238"/>
<path id="Vector_25" d="M48.7509 28.3823L47.8343 28.199C47.4892 28.0903 47.1702 27.9115 46.8974 27.6738C46.6247 27.4361 46.4039 27.1446 46.249 26.8176C46.0941 26.4906 46.0084 26.1352 45.9973 25.7735C45.9862 25.4119 46.0499 25.0518 46.1844 24.7159C47.5898 20.6218 50.0341 17.9943 53.3338 16.8944C59.3222 14.8168 65.7383 18.8498 65.9828 19.0331C66.5905 19.4139 67.022 20.0206 67.1825 20.7196C67.3429 21.4187 67.2191 22.1528 66.8382 22.7605C66.6497 23.0615 66.4037 23.3223 66.1143 23.5281C65.8249 23.734 65.4978 23.8808 65.1517 23.9603C64.4526 24.1207 63.7185 23.9969 63.1108 23.616C61.8275 22.8828 57.9779 21.0496 55.1059 22.0884C53.3949 22.6383 52.1728 24.1049 51.3173 26.5491C51.1219 27.0763 50.7729 27.5328 50.3154 27.8596C49.8579 28.1864 49.3129 28.3685 48.7509 28.3823Z" fill="#263238"/>
<path id="Vector_26" d="M70.3216 74.5788H70.1383C69.92 74.5213 69.7333 74.3798 69.6188 74.1852C69.5043 73.9907 69.4714 73.7587 69.5272 73.54C70.0582 72.2264 71.0607 71.1585 72.3381 70.5458C75.4545 68.957 80.2819 69.2625 86.5758 71.5846C86.6776 71.6187 86.7713 71.673 86.8515 71.7443C86.9316 71.8156 86.9965 71.9025 87.0422 71.9995C87.0879 72.0966 87.1134 72.2019 87.1173 72.3092C87.1211 72.4164 87.1032 72.5233 87.0647 72.6234C87.0306 72.7251 86.9762 72.8189 86.9049 72.899C86.8336 72.9792 86.7468 73.044 86.6497 73.0897C86.5526 73.1354 86.4473 73.161 86.3401 73.1648C86.2329 73.1687 86.126 73.1508 86.0259 73.1122C78.8154 70.4847 75.0268 71.0346 73.1325 72.0123C72.2234 72.3962 71.4999 73.1197 71.116 74.0288C71.0625 74.195 70.9556 74.339 70.812 74.4384C70.6684 74.5379 70.4961 74.5872 70.3216 74.5788Z" fill="#263238"/>
<path id="Vector_27" d="M44.4747 71.5846C34.9099 72.4576 25.6092 75.198 17.0992 79.6506C21.8043 78.734 38.7307 99.6323 43.0692 115.764C51.0741 112.77 60.3622 110.754 70.3225 109.165C64.3341 92.544 53.2739 73.7844 44.4747 71.5846Z" fill="#1AC4BB"/>
<path id="Vector_28" opacity="0.6" d="M44.4747 71.5846C34.9099 72.4576 25.6092 75.198 17.0992 79.6506C21.8043 78.734 38.7307 99.6323 43.0692 115.764C51.0741 112.77 60.3622 110.754 70.3225 109.165C64.3341 92.544 53.2739 73.7844 44.4747 71.5846Z" fill="#1AC4BB"/>
<path id="Vector_29" d="M44.473 71.5847C34.0238 70.4237 17.0975 79.1618 17.0975 79.1618C14.1033 81.0561 14.8977 84.6614 16.5475 86.189C18.0752 83.9281 35.6126 78.0619 42.2121 77.2675C38.9123 74.2122 41.9676 72.0124 44.473 71.5847Z" fill="#009289"/>
<path id="Vector_30" opacity="0.2" d="M44.473 71.5847C34.0238 70.4237 17.0975 79.1618 17.0975 79.1618C14.1033 81.0561 14.8977 84.6614 16.5475 86.189C18.0752 83.9281 35.6126 78.0619 42.2121 77.2675C38.9123 74.2122 41.9676 72.0124 44.473 71.5847Z" fill="#1AC4BB"/>
<path id="Vector_31" d="M29.074 97.0658C28.609 97.0709 28.1506 96.9554 27.7436 96.7305C27.3367 96.5056 26.995 96.179 26.7519 95.7825C24.7354 92.7883 26.0187 88.1443 26.2631 87.2277C26.4749 86.5315 26.9539 85.9477 27.5953 85.6041C28.2367 85.2605 28.9881 85.1851 29.685 85.3945C30.0274 85.4927 30.3469 85.6579 30.6249 85.8805C30.9029 86.1032 31.1338 86.3789 31.3044 86.6916C31.475 87.0043 31.5817 87.3477 31.6184 87.702C31.6551 88.0563 31.621 88.4143 31.5182 88.7553C31.0905 90.3441 30.9682 92.2995 31.3349 92.7883C31.5394 93.092 31.6813 93.4335 31.7521 93.7927C31.8229 94.1519 31.8212 94.5216 31.7473 94.8802C31.6733 95.2388 31.5284 95.579 31.3212 95.8808C31.114 96.1827 30.8485 96.4401 30.5405 96.638C30.091 96.8913 29.5892 97.0376 29.074 97.0658Z" fill="#263238"/>
</g>
</g>
</g>
</svg>
