<svg width="131" height="70" viewBox="0 0 131 70" fill="none" xmlns="http://www.w3.org/2000/svg">
<ellipse cx="71.5" cy="26" rx="37.5" ry="14" fill="#00CDC2"/>
<g filter="url(#filter0_b_2513_144)">
<path d="M1 12.006V68.0248C1.43927 69.791 2.64727 68.7607 3.19636 68.0248C7.1498 57.4283 12.7139 54.411 15.0018 54.2269H115.443C127.084 53.3438 129.994 46.6841 129.994 43.4646V19.1807C130.214 6.37637 124.046 1.88763 120.934 1.24379C95.5847 1.05982 22.5792 0.802263 13.3545 1.24379C4.12981 1.68532 1.27454 8.60258 1 12.006Z" fill="#00CDC2" fill-opacity="0.1"/>
<path d="M1 12.006V68.0248C1.43927 69.791 2.64727 68.7607 3.19636 68.0248C7.1498 57.4283 12.7139 54.411 15.0018 54.2269H115.443C127.084 53.3438 129.994 46.6841 129.994 43.4646V19.1807C130.214 6.37637 124.046 1.88763 120.934 1.24379C95.5847 1.05982 22.5792 0.802263 13.3545 1.24379C4.12981 1.68532 1.27454 8.60258 1 12.006Z" stroke="url(#paint0_linear_2513_144)"/>
</g>
<path d="M37.296 23.102V28.576C37.296 29.2387 37.2167 29.85 37.058 30.41C36.9087 30.9607 36.6707 31.4367 36.344 31.838C36.0173 32.2393 35.5927 32.552 35.07 32.776C34.5567 33 33.9313 33.112 33.194 33.112C32.4567 33.112 31.8267 33 31.304 32.776C30.7907 32.552 30.366 32.244 30.03 31.852C29.7033 31.4507 29.4607 30.9747 29.302 30.424C29.1527 29.864 29.078 29.248 29.078 28.576V23.102H30.702V28.632C30.702 29.0427 30.744 29.43 30.828 29.794C30.912 30.158 31.052 30.48 31.248 30.76C31.444 31.0307 31.7007 31.25 32.018 31.418C32.3353 31.5767 32.732 31.656 33.208 31.656C33.6747 31.656 34.0667 31.5767 34.384 31.418C34.7013 31.25 34.9533 31.026 35.14 30.746C35.336 30.466 35.4713 30.144 35.546 29.78C35.63 29.416 35.672 29.0333 35.672 28.632V23.102H37.296ZM45.013 26.84L40.981 31.628H45.013V33H38.965V31.782L42.969 27.008H38.965V25.622H45.013V26.84ZM46.4774 33V23.102H48.0734V26.658C48.344 26.2847 48.6987 26 49.1374 25.804C49.5854 25.5987 50.038 25.496 50.4954 25.496C51.0087 25.496 51.466 25.5893 51.8674 25.776C52.2687 25.9533 52.6094 26.21 52.8894 26.546C53.1694 26.8727 53.3794 27.2693 53.5194 27.736C53.6687 28.1933 53.7434 28.7113 53.7434 29.29C53.7434 29.822 53.678 30.3213 53.5474 30.788C53.4167 31.2453 53.216 31.6467 52.9454 31.992C52.6747 32.3373 52.334 32.608 51.9234 32.804C51.522 33 51.046 33.098 50.4954 33.098C49.4407 33.098 48.6334 32.7573 48.0734 32.076C48.064 32.2347 48.0547 32.3887 48.0454 32.538C48.0454 32.6873 48.0454 32.8413 48.0454 33H46.4774ZM50.1594 31.712C50.5047 31.712 50.8034 31.6513 51.0554 31.53C51.3074 31.3993 51.5127 31.2267 51.6714 31.012C51.8394 30.7973 51.9607 30.5453 52.0354 30.256C52.1194 29.9667 52.1614 29.654 52.1614 29.318C52.1614 28.982 52.1194 28.6693 52.0354 28.38C51.9607 28.0813 51.8394 27.8247 51.6714 27.61C51.5127 27.3953 51.3027 27.2273 51.0414 27.106C50.7894 26.9847 50.486 26.924 50.1314 26.924C49.7674 26.924 49.4547 26.994 49.1934 27.134C48.9414 27.274 48.7314 27.4607 48.5634 27.694C48.3954 27.918 48.2694 28.1747 48.1854 28.464C48.1014 28.7533 48.0594 29.0427 48.0594 29.332C48.0594 29.6493 48.1014 29.9527 48.1854 30.242C48.2694 30.522 48.3954 30.7693 48.5634 30.984C48.7314 31.1987 48.946 31.376 49.2074 31.516C49.4687 31.6467 49.786 31.712 50.1594 31.712ZM56.516 29.85C56.5347 30.1207 56.5907 30.3727 56.684 30.606C56.7774 30.8393 56.9034 31.0447 57.062 31.222C57.23 31.39 57.4307 31.5253 57.664 31.628C57.9067 31.7307 58.1867 31.782 58.504 31.782C58.84 31.782 59.148 31.7213 59.428 31.6C59.708 31.4787 59.9134 31.2687 60.044 30.97H61.682C61.5887 31.3433 61.4347 31.6653 61.22 31.936C61.0147 32.2067 60.7674 32.4307 60.478 32.608C60.198 32.776 59.8854 32.902 59.54 32.986C59.204 33.0607 58.8447 33.098 58.462 33.098C57.874 33.098 57.356 33.0093 56.908 32.832C56.4694 32.6547 56.1007 32.398 55.802 32.062C55.5034 31.726 55.2794 31.3293 55.13 30.872C54.99 30.4053 54.92 29.8827 54.92 29.304C54.92 28.744 54.9994 28.2353 55.158 27.778C55.3167 27.3113 55.5454 26.91 55.844 26.574C56.152 26.238 56.5207 25.9767 56.95 25.79C57.3794 25.594 57.8694 25.496 58.42 25.496C58.9987 25.496 59.498 25.594 59.918 25.79C60.338 25.9767 60.688 26.2333 60.968 26.56C61.2574 26.8867 61.472 27.2693 61.612 27.708C61.752 28.1467 61.822 28.6227 61.822 29.136C61.822 29.3787 61.808 29.6167 61.78 29.85H56.516ZM60.268 28.646C60.2494 28.086 60.072 27.652 59.736 27.344C59.4 27.036 58.966 26.882 58.434 26.882C58.1354 26.882 57.874 26.9287 57.65 27.022C57.426 27.1153 57.2347 27.2413 57.076 27.4C56.9267 27.5587 56.8054 27.7453 56.712 27.96C56.6187 28.1747 56.558 28.4033 56.53 28.646H60.268ZM63.2664 33V23.102H64.8484V28.632H65.9964L67.9004 25.622H69.6924L67.3684 29.136L69.8884 33H68.0404L66.0944 30.018H64.8484V33H63.2664ZM71.696 22.556C71.9853 22.556 72.2233 22.6447 72.41 22.822C72.606 22.9993 72.704 23.242 72.704 23.55C72.704 23.8487 72.606 24.0867 72.41 24.264C72.2233 24.4413 71.9853 24.53 71.696 24.53C71.388 24.53 71.1406 24.4413 70.954 24.264C70.7673 24.0867 70.674 23.8487 70.674 23.55C70.674 23.242 70.7673 22.9993 70.954 22.822C71.1406 22.6447 71.388 22.556 71.696 22.556ZM70.884 33V25.622H72.48V33H70.884ZM77.029 26.826C76.889 26.826 76.7397 26.8353 76.581 26.854C76.4317 26.8727 76.287 26.9147 76.147 26.98C76.0163 27.036 75.9043 27.12 75.811 27.232C75.727 27.344 75.685 27.4887 75.685 27.666C75.685 27.862 75.7503 28.016 75.881 28.128C76.021 28.24 76.1843 28.3333 76.371 28.408C76.5577 28.4733 76.7537 28.5293 76.959 28.576C77.1737 28.6133 77.3557 28.646 77.505 28.674C77.9063 28.758 78.2657 28.8467 78.583 28.94C78.9097 29.0333 79.185 29.1593 79.409 29.318C79.633 29.4673 79.8057 29.6633 79.927 29.906C80.0577 30.1487 80.123 30.466 80.123 30.858C80.123 31.278 80.0343 31.6327 79.857 31.922C79.689 32.2113 79.465 32.4447 79.185 32.622C78.9143 32.79 78.6017 32.9113 78.247 32.986C77.9017 33.0607 77.5423 33.098 77.169 33.098C76.7957 33.098 76.427 33.0607 76.063 32.986C75.699 32.9113 75.363 32.7853 75.055 32.608C74.7563 32.4307 74.5043 32.1973 74.299 31.908C74.103 31.6093 73.9817 31.25 73.935 30.83H75.545C75.5823 31.0167 75.6617 31.1707 75.783 31.292C75.9043 31.4133 76.0443 31.5113 76.203 31.586C76.371 31.6607 76.5437 31.712 76.721 31.74C76.8983 31.768 77.0617 31.782 77.211 31.782C77.323 31.782 77.4583 31.7727 77.617 31.754C77.785 31.7353 77.939 31.6933 78.079 31.628C78.219 31.5627 78.3357 31.4787 78.429 31.376C78.5317 31.264 78.583 31.124 78.583 30.956C78.583 30.7973 78.5457 30.6667 78.471 30.564C78.3963 30.452 78.2937 30.3587 78.163 30.284C78.0417 30.2093 77.8923 30.1533 77.715 30.116C77.5377 30.0693 77.351 30.0227 77.155 29.976C76.847 29.92 76.5157 29.85 76.161 29.766C75.8157 29.682 75.489 29.5747 75.181 29.444C74.8823 29.304 74.635 29.0987 74.439 28.828C74.243 28.5573 74.145 28.212 74.145 27.792C74.145 27.344 74.2337 26.9753 74.411 26.686C74.5883 26.3967 74.817 26.1633 75.097 25.986C75.377 25.7993 75.6897 25.6733 76.035 25.608C76.3803 25.5333 76.721 25.496 77.057 25.496C77.869 25.496 78.5317 25.6827 79.045 26.056C79.5677 26.4293 79.8523 26.9707 79.899 27.68H78.401C78.3543 27.3813 78.2003 27.1713 77.939 27.05C77.687 26.9193 77.3837 26.8447 77.029 26.826ZM83.6894 25.622H85.9014V27.008H83.6894V30.256C83.6894 30.4427 83.6987 30.62 83.7174 30.788C83.7454 30.956 83.792 31.11 83.8574 31.25C83.932 31.3807 84.0347 31.488 84.1654 31.572C84.296 31.656 84.4734 31.698 84.6974 31.698C85.0894 31.698 85.4254 31.5813 85.7054 31.348L86.2374 32.538C85.9947 32.7247 85.7147 32.8647 85.3974 32.958C85.08 33.042 84.7674 33.084 84.4594 33.084C83.6567 33.084 83.064 32.8833 82.6814 32.482C82.2987 32.0713 82.1074 31.432 82.1074 30.564V27.008H80.9454V25.622H82.1074V23.522H83.6894V25.622ZM92.0069 32.09C91.7642 32.4353 91.4422 32.692 91.0409 32.86C90.6396 33.0187 90.1916 33.098 89.6969 33.098C89.3049 33.098 88.9456 33.0513 88.6189 32.958C88.3016 32.8647 88.0216 32.7247 87.7789 32.538C87.5362 32.342 87.3449 32.104 87.2049 31.824C87.0649 31.5347 86.9949 31.208 86.9949 30.844C86.9949 30.4427 87.0742 30.102 87.2329 29.822C87.3916 29.5327 87.6062 29.2993 87.8769 29.122C88.1569 28.9447 88.4836 28.814 88.8569 28.73C89.2302 28.6367 89.6222 28.59 90.0329 28.59H91.9229C91.9229 28.0487 91.8016 27.6287 91.5589 27.33C91.3162 27.0313 90.8916 26.8773 90.2849 26.868C89.9302 26.868 89.6222 26.9287 89.3609 27.05C89.1089 27.1713 88.9409 27.372 88.8569 27.652H87.2189C87.2749 27.26 87.4009 26.9287 87.5969 26.658C87.8022 26.3873 88.0449 26.1633 88.3249 25.986C88.6142 25.8087 88.9316 25.6827 89.2769 25.608C89.6316 25.5333 89.9862 25.496 90.3409 25.496C90.7982 25.496 91.2229 25.5567 91.6149 25.678C92.0069 25.7993 92.3476 26.0047 92.6369 26.294C92.9636 26.63 93.1829 27.0313 93.2949 27.498C93.4069 27.9647 93.4629 28.4733 93.4629 29.024V33H92.0769L92.0069 32.09ZM91.9229 29.724H90.3829C90.1122 29.724 89.8416 29.7473 89.5709 29.794C89.3002 29.8313 89.0669 29.9293 88.8709 30.088C88.6842 30.2373 88.5909 30.4567 88.5909 30.746C88.5909 31.1007 88.7169 31.3713 88.9689 31.558C89.2302 31.7353 89.5476 31.824 89.9209 31.824C90.2102 31.824 90.4762 31.7867 90.7189 31.712C90.9709 31.6373 91.1856 31.516 91.3629 31.348C91.5402 31.1707 91.6756 30.9513 91.7689 30.69C91.8716 30.4193 91.9229 30.0973 91.9229 29.724ZM95.1766 33V25.622H96.7026L96.7866 26.644C97.0573 26.2613 97.3933 25.9767 97.7946 25.79C98.2053 25.594 98.6393 25.496 99.0966 25.496C99.6193 25.496 100.058 25.5847 100.413 25.762C100.777 25.9393 101.071 26.182 101.295 26.49C101.528 26.798 101.691 27.162 101.785 27.582C101.887 28.002 101.939 28.4593 101.939 28.954V33H100.343V29.192C100.343 28.8747 100.319 28.5807 100.273 28.31C100.235 28.0393 100.156 27.8013 100.035 27.596C99.9133 27.3813 99.7406 27.2133 99.5166 27.092C99.3019 26.9707 99.0219 26.91 98.6766 26.91C98.3499 26.91 98.0513 26.9893 97.7806 27.148C97.5193 27.3067 97.3139 27.512 97.1646 27.764C97.0246 28.016 96.9219 28.296 96.8566 28.604C96.8006 28.912 96.7726 29.206 96.7726 29.486V33H95.1766Z" fill="white"/>
<defs>
<filter id="filter0_b_2513_144" x="-43.5" y="-43.5" width="218" height="157" filterUnits="userSpaceOnUse" color-interpolation-filters="sRGB">
<feFlood flood-opacity="0" result="BackgroundImageFix"/>
<feGaussianBlur in="BackgroundImageFix" stdDeviation="22"/>
<feComposite in2="SourceAlpha" operator="in" result="effect1_backgroundBlur_2513_144"/>
<feBlend mode="normal" in="SourceGraphic" in2="effect1_backgroundBlur_2513_144" result="shape"/>
</filter>
<linearGradient id="paint0_linear_2513_144" x1="11.5" y1="8.5" x2="65.5" y2="69" gradientUnits="userSpaceOnUse">
<stop stop-color="#00CDC2"/>
<stop offset="1" stop-color="#00CDC2" stop-opacity="0"/>
</linearGradient>
</defs>
</svg>
