<svg width="24" height="25" viewBox="0 0 24 25" fill="none" xmlns="http://www.w3.org/2000/svg">
<g id="uil:bag">
<path id="Vector" d="M19 6.5H16V5.5C16 4.96957 15.7893 4.46086 15.4142 4.08579C15.0391 3.71071 14.5304 3.5 14 3.5H10C9.46957 3.5 8.96086 3.71071 8.58579 4.08579C8.21071 4.46086 8 4.96957 8 5.5V6.5H5C4.20435 6.5 3.44129 6.81607 2.87868 7.37868C2.31607 7.94129 2 8.70435 2 9.5V18.5C2 19.2956 2.31607 20.0587 2.87868 20.6213C3.44129 21.1839 4.20435 21.5 5 21.5H19C19.7956 21.5 20.5587 21.1839 21.1213 20.6213C21.6839 20.0587 22 19.2956 22 18.5V9.5C22 8.70435 21.6839 7.94129 21.1213 7.37868C20.5587 6.81607 19.7956 6.5 19 6.5ZM10 5.5H14V6.5H10V5.5ZM20 18.5C20 18.7652 19.8946 19.0196 19.7071 19.2071C19.5196 19.3946 19.2652 19.5 19 19.5H5C4.73478 19.5 4.48043 19.3946 4.29289 19.2071C4.10536 19.0196 4 18.7652 4 18.5V12.89L8.68 14.5C8.78618 14.5144 8.89382 14.5144 9 14.5H15C15.1084 14.498 15.2161 14.4812 15.32 14.45L20 12.89V18.5ZM20 10.78L14.84 12.5H9.16L4 10.78V9.5C4 9.23478 4.10536 8.98043 4.29289 8.79289C4.48043 8.60536 4.73478 8.5 5 8.5H19C19.2652 8.5 19.5196 8.60536 19.7071 8.79289C19.8946 8.98043 20 9.23478 20 9.5V10.78Z" fill="#051313"/>
</g>
</svg>
