<svg width="17" height="17" viewBox="0 0 17 17" fill="none" xmlns="http://www.w3.org/2000/svg">
<g id="u:comment-alt-dots">
<path id="Vector" d="M8.49998 6.49998C8.36813 6.49998 8.23923 6.53908 8.1296 6.61233C8.01997 6.68559 7.93452 6.78971 7.88406 6.91152C7.8336 7.03334 7.8204 7.16739 7.84612 7.29671C7.87185 7.42603 7.93534 7.54482 8.02858 7.63805C8.12181 7.73129 8.2406 7.79478 8.36992 7.8205C8.49924 7.84623 8.63329 7.83302 8.7551 7.78257C8.87692 7.73211 8.98104 7.64666 9.05429 7.53703C9.12755 7.42739 9.16665 7.2985 9.16665 7.16665C9.16665 6.98984 9.09641 6.82027 8.97138 6.69524C8.84636 6.57022 8.67679 6.49998 8.49998 6.49998ZM13.1666 1.83331H3.83331C3.30288 1.83331 2.79417 2.04403 2.4191 2.4191C2.04403 2.79417 1.83331 3.30288 1.83331 3.83331V10.5C1.83331 11.0304 2.04403 11.5391 2.4191 11.9142C2.79417 12.2893 3.30288 12.5 3.83331 12.5H11.56L14.0266 14.9733C14.0889 15.0351 14.1628 15.084 14.244 15.1172C14.3253 15.1503 14.4122 15.1672 14.5 15.1666C14.5874 15.1689 14.6742 15.1506 14.7533 15.1133C14.8751 15.0633 14.9793 14.9784 15.0528 14.8692C15.1264 14.7601 15.166 14.6316 15.1666 14.5V3.83331C15.1666 3.30288 14.9559 2.79417 14.5809 2.4191C14.2058 2.04403 13.6971 1.83331 13.1666 1.83331ZM13.8333 12.8933L12.3066 11.36C12.2444 11.2982 12.1705 11.2493 12.0893 11.2161C12.008 11.183 11.9211 11.1661 11.8333 11.1666H3.83331C3.6565 11.1666 3.48693 11.0964 3.36191 10.9714C3.23688 10.8464 3.16665 10.6768 3.16665 10.5V3.83331C3.16665 3.6565 3.23688 3.48693 3.36191 3.36191C3.48693 3.23688 3.6565 3.16665 3.83331 3.16665H13.1666C13.3435 3.16665 13.513 3.23688 13.6381 3.36191C13.7631 3.48693 13.8333 3.6565 13.8333 3.83331V12.8933ZM5.83331 6.49998C5.70146 6.49998 5.57257 6.53908 5.46293 6.61233C5.3533 6.68559 5.26785 6.78971 5.21739 6.91152C5.16693 7.03334 5.15373 7.16739 5.17946 7.29671C5.20518 7.42603 5.26867 7.54482 5.36191 7.63805C5.45514 7.73129 5.57393 7.79478 5.70325 7.8205C5.83257 7.84623 5.96662 7.83302 6.08844 7.78257C6.21025 7.73211 6.31437 7.64666 6.38763 7.53703C6.46088 7.42739 6.49998 7.2985 6.49998 7.16665C6.49998 6.98984 6.42974 6.82027 6.30472 6.69524C6.17969 6.57022 6.01012 6.49998 5.83331 6.49998ZM11.1666 6.49998C11.0348 6.49998 10.9059 6.53908 10.7963 6.61233C10.6866 6.68559 10.6012 6.78971 10.5507 6.91152C10.5003 7.03334 10.4871 7.16739 10.5128 7.29671C10.5385 7.42603 10.602 7.54482 10.6952 7.63805C10.7885 7.73129 10.9073 7.79478 11.0366 7.8205C11.1659 7.84623 11.3 7.83302 11.4218 7.78257C11.5436 7.73211 11.6477 7.64666 11.721 7.53703C11.7942 7.42739 11.8333 7.2985 11.8333 7.16665C11.8333 6.98984 11.7631 6.82027 11.6381 6.69524C11.513 6.57022 11.3435 6.49998 11.1666 6.49998Z" fill="black"/>
</g>
</svg>
