<svg width="17" height="17" viewBox="0 0 17 17" fill="none" xmlns="http://www.w3.org/2000/svg">
<g id="u:pen">
<path id="Vector" d="M15.1667 5.32666C15.1672 5.23893 15.1503 5.15195 15.1172 5.07073C15.084 4.9895 15.0351 4.91563 14.9733 4.85333L12.1467 2.02667C12.0844 1.96488 12.0105 1.91599 11.9293 1.88282C11.848 1.84964 11.7611 1.83282 11.6733 1.83333C11.5856 1.83282 11.4986 1.84964 11.4174 1.88282C11.3362 1.91599 11.2623 1.96488 11.2 2.02667L9.31332 3.91333L2.02666 11.2C1.96487 11.2623 1.91599 11.3362 1.88281 11.4174C1.84963 11.4986 1.83282 11.5856 1.83332 11.6733V14.5C1.83332 14.6768 1.90356 14.8464 2.02859 14.9714C2.15361 15.0964 2.32318 15.1667 2.49999 15.1667H5.32666C5.41994 15.1717 5.51325 15.1571 5.60054 15.1238C5.68782 15.0905 5.76713 15.0393 5.83332 14.9733L13.08 7.68667L14.9733 5.83333C15.0342 5.76872 15.0838 5.69435 15.12 5.61333C15.1264 5.56019 15.1264 5.50647 15.12 5.45333C15.1231 5.4223 15.1231 5.39103 15.12 5.36L15.1667 5.32666ZM5.05332 13.8333H3.16666V11.9467L9.78666 5.32666L11.6733 7.21333L5.05332 13.8333ZM12.6133 6.27333L10.7267 4.38666L11.6733 3.44667L13.5533 5.32666L12.6133 6.27333Z" fill="#051313"/>
</g>
</svg>
