<svg width="56" height="61" viewBox="0 0 56 61" fill="none" xmlns="http://www.w3.org/2000/svg">
<circle cx="32" cy="23" r="23" fill="#FF5656"/>
<path d="M27.1882 17.0092C26.8628 16.6838 26.3351 16.6838 26.0097 17.0092C25.6843 17.3347 25.6843 17.8623 26.0097 18.1877L30.822 23L26.0098 27.8122C25.6843 28.1377 25.6843 28.6653 26.0098 28.9907C26.3352 29.3162 26.8628 29.3162 27.1883 28.9907L32.0005 24.1785L36.8127 28.9907C37.1382 29.3162 37.6658 29.3162 37.9912 28.9907C38.3167 28.6653 38.3167 28.1377 37.9912 27.8122L33.179 23L37.9913 18.1877C38.3167 17.8623 38.3167 17.3347 37.9913 17.0092C37.6658 16.6838 37.1382 16.6838 36.8128 17.0092L32.0005 21.8215L27.1882 17.0092Z" fill="white"/>
<circle cx="52.5" cy="33.5" r="3.5" fill="#FF5656"/>
<circle cx="50.5" cy="48.5" r="2.5" fill="#FF5656"/>
<circle opacity="0.3" cx="29" cy="55" r="6" fill="#FF5656"/>
<circle cx="47" cy="8" r="7" fill="#FF5656"/>
<circle opacity="0.2" cx="12" cy="16" r="12" fill="#FF5656"/>
</svg>
