<svg width="24" height="25" viewBox="0 0 24 25" fill="none" xmlns="http://www.w3.org/2000/svg">
<g id="u:forwaded-call">
<path id="Vector" d="M14.9401 7.05999H18.5201L17.7301 7.85999C17.5438 8.04735 17.4393 8.3008 17.4393 8.56499C17.4393 8.82918 17.5438 9.08263 17.7301 9.26999C17.9175 9.45624 18.1709 9.56078 18.4351 9.56078C18.6993 9.56078 18.9527 9.45624 19.1401 9.26999L21.6401 6.76999C21.8264 6.58263 21.9309 6.32918 21.9309 6.06499C21.9309 5.8008 21.8264 5.54735 21.6401 5.35999L19.1401 2.85999C18.9488 2.69616 18.7027 2.61056 18.451 2.62028C18.1994 2.63 17.9606 2.73433 17.7825 2.91243C17.6044 3.09052 17.5001 3.32926 17.4904 3.58094C17.4807 3.83261 17.5663 4.07869 17.7301 4.26999L18.5201 5.05999H14.9401C14.6749 5.05999 14.4205 5.16535 14.233 5.35288C14.0455 5.54042 13.9401 5.79477 13.9401 6.05999C13.9401 6.32521 14.0455 6.57956 14.233 6.7671C14.4205 6.95463 14.6749 7.05999 14.9401 7.05999ZM19.4401 13.5C19.2201 13.5 18.9901 13.43 18.7701 13.38C18.3246 13.2818 17.8868 13.1515 17.4601 12.99C16.9962 12.8212 16.4862 12.83 16.0284 13.0146C15.5706 13.1992 15.1972 13.5466 14.9801 13.99L14.7601 14.44C13.7861 13.8982 12.8911 13.2252 12.1001 12.44C11.3149 11.649 10.6419 10.754 10.1001 9.77999L10.5201 9.49999C10.9635 9.28291 11.3109 8.90952 11.4955 8.45168C11.6801 7.99384 11.6889 7.4839 11.5201 7.01999C11.3613 6.59241 11.231 6.15479 11.1301 5.70999C11.0801 5.48999 11.0401 5.25999 11.0101 5.02999C10.8887 4.32561 10.5197 3.68773 9.96972 3.23123C9.41972 2.77473 8.7248 2.5296 8.0101 2.53999H5.0101C4.57913 2.53594 4.15235 2.6248 3.75881 2.80052C3.36527 2.97624 3.01421 3.23469 2.72953 3.55827C2.44485 3.88186 2.23324 4.26298 2.10909 4.6757C1.98494 5.08842 1.95118 5.52305 2.0101 5.94999C2.54284 10.1394 4.45613 14.0319 7.44775 17.0126C10.4394 19.9934 14.3388 21.8925 18.5301 22.41H18.9101C19.6475 22.4111 20.3595 22.1405 20.9101 21.65C21.2265 21.367 21.4792 21.0202 21.6516 20.6323C21.8239 20.2444 21.9121 19.8244 21.9101 19.4V16.4C21.8979 15.7054 21.6449 15.0365 21.1944 14.5077C20.744 13.9788 20.1239 13.6226 19.4401 13.5ZM19.9401 19.5C19.9399 19.642 19.9095 19.7823 19.8509 19.9116C19.7923 20.0409 19.7068 20.1563 19.6001 20.25C19.4884 20.3465 19.3577 20.4185 19.2165 20.4616C19.0753 20.5046 18.9267 20.5177 18.7801 20.5C15.035 20.0198 11.5563 18.3065 8.89282 15.6303C6.2293 12.9541 4.53251 9.46733 4.0701 5.71999C4.05419 5.57351 4.06813 5.42532 4.1111 5.28438C4.15407 5.14344 4.22517 5.01268 4.3201 4.89999C4.41381 4.79332 4.52916 4.70783 4.65848 4.64921C4.7878 4.59058 4.92812 4.56017 5.0701 4.55999H8.0701C8.30265 4.55482 8.52972 4.63087 8.71224 4.77506C8.89476 4.91925 9.02131 5.12256 9.0701 5.34999C9.1101 5.62332 9.1601 5.89332 9.2201 6.15999C9.33562 6.68713 9.48936 7.20517 9.6801 7.70999L8.2801 8.35999C8.1604 8.41491 8.05272 8.49294 7.96326 8.58959C7.87379 8.68623 7.8043 8.7996 7.75877 8.92318C7.71324 9.04677 7.69257 9.17812 7.69795 9.30971C7.70332 9.4413 7.73464 9.57054 7.7901 9.68999C9.2293 12.7727 11.7073 15.2508 14.7901 16.69C15.0336 16.79 15.3066 16.79 15.5501 16.69C15.6748 16.6454 15.7894 16.5764 15.8873 16.4872C15.9851 16.3979 16.0643 16.2901 16.1201 16.17L16.7401 14.77C17.2571 14.9549 17.7847 15.1085 18.3201 15.23C18.5868 15.29 18.8568 15.34 19.1301 15.38C19.3575 15.4288 19.5608 15.5553 19.705 15.7378C19.8492 15.9204 19.9253 16.1474 19.9201 16.38L19.9401 19.5Z" fill="#051313"/>
</g>
</svg>
