<svg width="24" height="25" viewBox="0 0 24 25" fill="none" xmlns="http://www.w3.org/2000/svg">
<g id="menu-left-alt">
<g id="menu-left-alt_2">
<path d="M4 6.5C4 5.94772 4.44772 5.5 5 5.5H19C19.5523 5.5 20 5.94772 20 6.5C20 7.05228 19.5523 7.5 19 7.5H5C4.44772 7.5 4 7.05228 4 6.5Z" fill="#051313"/>
<path d="M4 18.5C4 17.9477 4.44772 17.5 5 17.5H19C19.5523 17.5 20 17.9477 20 18.5C20 19.0523 19.5523 19.5 19 19.5H5C4.44772 19.5 4 19.0523 4 18.5Z" fill="#051313"/>
<path d="M5 11.5C4.44772 11.5 4 11.9477 4 12.5C4 13.0523 4.44772 13.5 5 13.5H13C13.5523 13.5 14 13.0523 14 12.5C14 11.9477 13.5523 11.5 13 11.5H5Z" fill="#051313"/>
</g>
</g>
</svg>
