<svg width="16" height="16" viewBox="0 0 16 16" fill="none" xmlns="http://www.w3.org/2000/svg">
<path d="M7.9987 4.00001C8.36689 4.00001 8.66536 4.29849 8.66536 4.66668V8.66668C8.66536 9.03487 8.36689 9.33334 7.9987 9.33334C7.63051 9.33334 7.33203 9.03487 7.33203 8.66668V4.66668C7.33203 4.29849 7.63051 4.00001 7.9987 4.00001Z" fill="#FF0000"/>
<path d="M7.9987 10.6667C7.63051 10.6667 7.33203 10.9652 7.33203 11.3333C7.33203 11.7015 7.63051 12 7.9987 12C8.36689 12 8.66536 11.7015 8.66536 11.3333C8.66536 10.9652 8.36689 10.6667 7.9987 10.6667Z" fill="#FF0000"/>
<path fill-rule="evenodd" clip-rule="evenodd" d="M7.9987 1.33334C4.3168 1.33334 1.33203 4.31811 1.33203 8.00001C1.33203 11.6819 4.3168 14.6667 7.9987 14.6667C11.6806 14.6667 14.6654 11.6819 14.6654 8.00001C14.6654 4.31811 11.6806 1.33334 7.9987 1.33334ZM2.66536 8.00001C2.66536 10.9455 5.05318 13.3333 7.9987 13.3333C10.9442 13.3333 13.332 10.9455 13.332 8.00001C13.332 5.05449 10.9442 2.66668 7.9987 2.66668C5.05318 2.66668 2.66536 5.05449 2.66536 8.00001Z" fill="#FF0000"/>
</svg>
