<svg width="16" height="16" viewBox="0 0 16 16" fill="none" xmlns="http://www.w3.org/2000/svg">
<g id="search">
<path id="search_2" fill-rule="evenodd" clip-rule="evenodd" d="M11.2459 10.3049C12.875 8.21261 12.7279 5.1855 10.8044 3.26205C8.7216 1.17925 5.34472 1.17925 3.26193 3.26205C1.17913 5.34484 1.17913 8.72172 3.26193 10.8045C5.18538 12.728 8.21249 12.8751 10.3048 11.246C10.3138 11.2562 10.3232 11.2662 10.333 11.2759L13.1614 14.1044C13.4218 14.3647 13.8439 14.3647 14.1042 14.1044C14.3646 13.844 14.3646 13.4219 14.1042 13.1615L11.2758 10.3331C11.266 10.3234 11.2561 10.314 11.2459 10.3049ZM9.86159 4.20486C11.4237 5.76695 11.4237 8.29961 9.86159 9.86171C8.29949 11.4238 5.76683 11.4238 4.20474 9.86171C2.64264 8.29961 2.64264 5.76695 4.20474 4.20486C5.76683 2.64276 8.29949 2.64276 9.86159 4.20486Z" fill="#333333"/>
</g>
</svg>
