<svg width="56" height="61" viewBox="0 0 56 61" fill="none" xmlns="http://www.w3.org/2000/svg">
<circle cx="32" cy="23" r="23" fill="#2EBD87"/>
<path d="M37.5917 19.0082C37.5142 18.9301 37.4221 18.8681 37.3205 18.8258C37.219 18.7835 37.11 18.7617 37 18.7617C36.89 18.7617 36.7811 18.7835 36.6796 18.8258C36.578 18.8681 36.4858 18.9301 36.4084 19.0082L30.2 25.2249L27.5917 22.6082C27.5113 22.5305 27.4163 22.4694 27.3123 22.4284C27.2082 22.3874 27.0971 22.3673 26.9853 22.3692C26.8735 22.3712 26.7631 22.3951 26.6606 22.4397C26.558 22.4843 26.4652 22.5486 26.3875 22.6291C26.3098 22.7095 26.2487 22.8044 26.2077 22.9085C26.1667 23.0125 26.1466 23.1236 26.1486 23.2354C26.1505 23.3473 26.1744 23.4576 26.219 23.5602C26.2636 23.6627 26.3279 23.7555 26.4084 23.8332L29.6084 27.0332C29.6858 27.1113 29.778 27.1733 29.8796 27.2156C29.9811 27.2579 30.09 27.2797 30.2 27.2797C30.3101 27.2797 30.419 27.2579 30.5205 27.2156C30.6221 27.1733 30.7142 27.1113 30.7917 27.0332L37.5917 20.2332C37.6763 20.1552 37.7438 20.0605 37.79 19.9551C37.8361 19.8496 37.86 19.7358 37.86 19.6207C37.86 19.5056 37.8361 19.3918 37.79 19.2864C37.7438 19.181 37.6763 19.0863 37.5917 19.0082Z" fill="white"/>
<circle cx="52.5" cy="33.5" r="3.5" fill="#2EBD87"/>
<circle cx="50.5" cy="48.5" r="2.5" fill="#2EBD87"/>
<circle opacity="0.3" cx="29" cy="55" r="6" fill="#2EBD87"/>
<circle cx="47" cy="8" r="7" fill="#2EBD87"/>
<circle opacity="0.2" cx="12" cy="16" r="12" fill="#2EBD87"/>
</svg>
