<svg width="16" height="16" viewBox="0 0 16 16" fill="none" xmlns="http://www.w3.org/2000/svg">
<g id="close">
<path id="close_2" d="M4.15016 3.20739C3.88981 2.94704 3.4677 2.94704 3.20735 3.20739C2.947 3.46774 2.947 3.88985 3.20735 4.1502L7.05717 8.00002L3.20739 11.8498C2.94704 12.1102 2.94704 12.5323 3.20739 12.7926C3.46774 13.053 3.88985 13.053 4.1502 12.7926L7.99998 8.94283L11.8498 12.7926C12.1101 13.053 12.5322 13.053 12.7926 12.7926C13.0529 12.5323 13.0529 12.1102 12.7926 11.8498L8.94279 8.00002L12.7926 4.1502C13.053 3.88985 13.053 3.46774 12.7926 3.20739C12.5323 2.94704 12.1102 2.94704 11.8498 3.20739L7.99998 7.05721L4.15016 3.20739Z" fill="white"/>
</g>
</svg>
