<svg width="17" height="17" viewBox="0 0 17 17" fill="none" xmlns="http://www.w3.org/2000/svg">
<g id="trash">
<g id="trash_2">
<path fill-rule="evenodd" clip-rule="evenodd" d="M5.16667 3.83334V3.16667C5.16667 2.43029 5.76362 1.83334 6.5 1.83334H10.5C11.2364 1.83334 11.8333 2.43029 11.8333 3.16667V3.83334H13.8333C14.2015 3.83334 14.5 4.13181 14.5 4.5C14.5 4.86819 14.2015 5.16667 13.8333 5.16667H13.1667V12.5C13.1667 13.6046 12.2712 14.5 11.1667 14.5H5.83333C4.72876 14.5 3.83333 13.6046 3.83333 12.5V5.16667H3.16667C2.79848 5.16667 2.5 4.86819 2.5 4.5C2.5 4.13181 2.79848 3.83334 3.16667 3.83334H5.16667ZM6.5 3.16667H10.5V3.83334H6.5V3.16667ZM5.16667 5.16667H11.8333V12.5C11.8333 12.8682 11.5349 13.1667 11.1667 13.1667H5.83333C5.46514 13.1667 5.16667 12.8682 5.16667 12.5V5.16667Z" fill="#051313"/>
<path d="M10.5 6.5H9.16667V11.8333H10.5V6.5Z" fill="#051313"/>
<path d="M7.83333 6.5H6.5V11.8333H7.83333V6.5Z" fill="#051313"/>
</g>
</g>
</svg>
