<svg width="16" height="16" viewBox="0 0 16 16" fill="none" xmlns="http://www.w3.org/2000/svg">
<path d="M9.88663 7.52655L7.05996 4.69988C6.99799 4.6374 6.92425 4.5878 6.84301 4.55396C6.76177 4.52011 6.67464 4.50269 6.58663 4.50269C6.49862 4.50269 6.41148 4.52011 6.33024 4.55396C6.249 4.5878 6.17527 4.6374 6.1133 4.69988C5.98913 4.82479 5.91943 4.99376 5.91943 5.16988C5.91943 5.34601 5.98913 5.51498 6.1133 5.63988L8.47329 7.99988L6.1133 10.3599C5.98913 10.4848 5.91943 10.6538 5.91943 10.8299C5.91943 11.006 5.98913 11.175 6.1133 11.2999C6.17559 11.3617 6.24947 11.4106 6.33069 11.4437C6.41192 11.4769 6.49889 11.4937 6.58663 11.4932C6.67437 11.4937 6.76134 11.4769 6.84257 11.4437C6.92379 11.4106 6.99767 11.3617 7.05996 11.2999L9.88663 8.47322C9.94911 8.41124 9.99871 8.33751 10.0326 8.25627C10.0664 8.17503 10.0838 8.08789 10.0838 7.99988C10.0838 7.91188 10.0664 7.82474 10.0326 7.7435C9.99871 7.66226 9.94911 7.58853 9.88663 7.52655Z" fill="white"/>
</svg>
