<svg width="20" height="20" viewBox="0 0 20 20" fill="none" xmlns="http://www.w3.org/2000/svg">
    <g id="u:user">
    <path id="Vector" d="M13.0924 10.5917C13.9094 9.94891 14.5057 9.06746 14.7984 8.06997C15.0911 7.07249 15.0657 6.00858 14.7256 5.02625C14.3854 4.04391 13.7476 3.19202 12.9008 2.58907C12.054 1.98612 11.0403 1.66211 10.0007 1.66211C8.96119 1.66211 7.94749 1.98612 7.10067 2.58907C6.25385 3.19202 5.61602 4.04391 5.27591 5.02625C4.9358 6.00858 4.91032 7.07249 5.20303 8.06997C5.49574 9.06746 6.09207 9.94891 6.90906 10.5917C5.50913 11.1526 4.28764 12.0828 3.37481 13.2833C2.46198 14.4838 1.89203 15.9094 1.72573 17.4084C1.71369 17.5178 1.72333 17.6285 1.75408 17.7342C1.78484 17.8399 1.83612 17.9386 1.90499 18.0245C2.04408 18.1979 2.24638 18.309 2.4674 18.3334C2.68841 18.3577 2.91003 18.2932 3.0835 18.1541C3.25697 18.015 3.36809 17.8127 3.3924 17.5917C3.57538 15.9627 4.35214 14.4582 5.57425 13.3657C6.79636 12.2732 8.37815 11.6692 10.0174 11.6692C11.6566 11.6692 13.2384 12.2732 14.4605 13.3657C15.6827 14.4582 16.4594 15.9627 16.6424 17.5917C16.6651 17.7965 16.7628 17.9856 16.9167 18.1225C17.0705 18.2595 17.2697 18.3346 17.4757 18.3334H17.5674C17.7858 18.3082 17.9855 18.1978 18.1229 18.0261C18.2602 17.8544 18.3242 17.6353 18.3007 17.4167C18.1336 15.9135 17.5606 14.4842 16.6431 13.2819C15.7256 12.0795 14.4982 11.1496 13.0924 10.5917ZM10.0007 10C9.34146 10 8.69699 9.80453 8.14883 9.43825C7.60067 9.07198 7.17342 8.55139 6.92113 7.9423C6.66884 7.33321 6.60283 6.66299 6.73145 6.01639C6.86006 5.36979 7.17753 4.77584 7.64371 4.30967C8.10988 3.84349 8.70383 3.52602 9.35043 3.39741C9.99703 3.26879 10.6673 3.3348 11.2763 3.58709C11.8854 3.83938 12.406 4.26662 12.7723 4.81479C13.1386 5.36295 13.3341 6.00742 13.3341 6.66669C13.3341 7.55074 12.9829 8.39859 12.3578 9.02371C11.7326 9.64883 10.8848 10 10.0007 10Z" fill="black"/>
    </g>
    </svg>
    
