<svg width="37" height="36" viewBox="0 0 37 36" fill="none" xmlns="http://www.w3.org/2000/svg">
<g id="fi:upload-cloud" clip-path="url(#clip0_1122_2009)">
<path id="Vector" d="M24.5 24L18.5 18L12.5 24" stroke="#0D3B3F" stroke-width="2" stroke-linecap="round" stroke-linejoin="round"/>
<path id="Vector_2" d="M18.5 18V31.5" stroke="#0D3B3F" stroke-width="2" stroke-linecap="round" stroke-linejoin="round"/>
<path id="Vector_3" d="M31.0849 27.585C32.548 26.7874 33.7037 25.5253 34.3698 23.9979C35.0358 22.4706 35.1743 20.7648 34.7633 19.15C34.3522 17.5352 33.4152 16.1033 32.0999 15.0802C30.7847 14.0571 29.1662 13.5011 27.4999 13.5H25.6099C25.1559 11.7439 24.3097 10.1135 23.1349 8.73149C21.96 7.34948 20.4872 6.25177 18.8271 5.52091C17.167 4.79005 15.3628 4.44504 13.5501 4.51182C11.7375 4.57861 9.96354 5.05545 8.36171 5.9065C6.75987 6.75755 5.37181 7.96065 4.30187 9.42537C3.23194 10.8901 2.50798 12.5783 2.18441 14.3631C1.86084 16.1479 1.9461 17.9828 2.43376 19.7299C2.92142 21.477 3.7988 23.0908 4.99994 24.45" stroke="#0D3B3F" stroke-width="2" stroke-linecap="round" stroke-linejoin="round"/>
<path id="Vector_4" d="M24.5 24L18.5 18L12.5 24" stroke="#0D3B3F" stroke-width="2" stroke-linecap="round" stroke-linejoin="round"/>
</g>
<defs>
<clipPath id="clip0_1122_2009">
<rect width="36" height="36" fill="white" transform="translate(0.5)"/>
</clipPath>
</defs>
</svg>
