<svg width="28" height="28" viewBox="0 0 28 28" fill="none" xmlns="http://www.w3.org/2000/svg">
<g id="u:user-plus">
<path id="Vector" d="M3.49996 12.25H4.66663V11.0834C4.66663 10.774 4.78954 10.4772 5.00834 10.2584C5.22713 10.0396 5.52387 9.91671 5.83329 9.91671C6.14271 9.91671 6.43946 10.0396 6.65825 10.2584C6.87704 10.4772 6.99996 10.774 6.99996 11.0834V12.25H8.16663C8.47605 12.25 8.77279 12.373 8.99158 12.5917C9.21038 12.8105 9.33329 13.1073 9.33329 13.4167C9.33329 13.7261 9.21038 14.0229 8.99158 14.2417C8.77279 14.4605 8.47605 14.5834 8.16663 14.5834H6.99996V15.75C6.99996 16.0595 6.87704 16.3562 6.65825 16.575C6.43946 16.7938 6.14271 16.9167 5.83329 16.9167C5.52387 16.9167 5.22713 16.7938 5.00834 16.575C4.78954 16.3562 4.66663 16.0595 4.66663 15.75V14.5834H3.49996C3.19054 14.5834 2.89379 14.4605 2.675 14.2417C2.45621 14.0229 2.33329 13.7261 2.33329 13.4167C2.33329 13.1073 2.45621 12.8105 2.675 12.5917C2.89379 12.373 3.19054 12.25 3.49996 12.25ZM12.4833 14.2567C11.8608 13.7179 11.3615 13.0514 11.0193 12.3026C10.6771 11.5537 10.5 10.74 10.5 9.91671C10.5 8.36961 11.1145 6.88588 12.2085 5.79192C13.3025 4.69796 14.7862 4.08337 16.3333 4.08337C17.8804 4.08337 19.3641 4.69796 20.4581 5.79192C21.552 6.88588 22.1666 8.36961 22.1666 9.91671C22.1666 10.74 21.9895 11.5537 21.6473 12.3026C21.3051 13.0514 20.8058 13.7179 20.1833 14.2567C21.8165 14.9962 23.2021 16.1905 24.1745 17.6967C25.1469 19.2029 25.6649 20.9572 25.6666 22.75C25.6666 23.0595 25.5437 23.3562 25.3249 23.575C25.1061 23.7938 24.8094 23.9167 24.5 23.9167C24.1905 23.9167 23.8938 23.7938 23.675 23.575C23.4562 23.3562 23.3333 23.0595 23.3333 22.75C23.3333 20.8935 22.5958 19.113 21.283 17.8003C19.9703 16.4875 18.1898 15.75 16.3333 15.75C14.4768 15.75 12.6963 16.4875 11.3835 17.8003C10.0708 19.113 9.33329 20.8935 9.33329 22.75C9.33329 23.0595 9.21038 23.3562 8.99158 23.575C8.77279 23.7938 8.47605 23.9167 8.16663 23.9167C7.85721 23.9167 7.56046 23.7938 7.34167 23.575C7.12288 23.3562 6.99996 23.0595 6.99996 22.75C7.00168 20.9572 7.5197 19.2029 8.4921 17.6967C9.4645 16.1905 10.8501 14.9962 12.4833 14.2567ZM16.3333 13.4167C17.0255 13.4167 17.7022 13.2114 18.2778 12.8269C18.8534 12.4423 19.302 11.8956 19.5669 11.2561C19.8318 10.6166 19.9011 9.91282 19.766 9.23389C19.631 8.55496 19.2977 7.93132 18.8082 7.44183C18.3187 6.95235 17.695 6.61901 17.0161 6.48396C16.3372 6.34891 15.6334 6.41822 14.9939 6.68313C14.3544 6.94804 13.8077 7.39664 13.4232 7.97221C13.0386 8.54778 12.8333 9.22447 12.8333 9.91671C12.8333 10.845 13.202 11.7352 13.8584 12.3916C14.5148 13.048 15.405 13.4167 16.3333 13.4167Z" fill="#4AAF3E"/>
</g>
</svg>
