<svg width="56" height="62" viewBox="0 0 56 62" fill="none" xmlns="http://www.w3.org/2000/svg">
<ellipse cx="32" cy="23.5338" rx="23" ry="23.1949" fill="#F6A601"/>
<path d="M30.127 17H33.0566L32.8223 26.4531H30.3613L30.127 17ZM31.5918 31.3359C30.7031 31.3359 30 30.6621 30 29.8027C30 28.9434 30.7031 28.2695 31.5918 28.2695C32.4805 28.2695 33.1836 28.9434 33.1836 29.8027C33.1836 30.6621 32.4805 31.3359 31.5918 31.3359Z" fill="white"/>
<ellipse cx="52.5" cy="34.1229" rx="3.5" ry="3.52966" fill="#F6A601"/>
<ellipse cx="50.5" cy="49.2497" rx="2.5" ry="2.52119" fill="#F6A601"/>
<ellipse opacity="0.3" cx="29" cy="55.8048" rx="6" ry="6.05085" fill="#F6A601"/>
<ellipse cx="47" cy="8.40649" rx="7" ry="7.05932" fill="#F6A601"/>
<ellipse opacity="0.2" cx="12" cy="16.4743" rx="12" ry="12.1017" fill="#F6A601"/>
</svg>
